<svg id="logo_mindme" data-name="logo mindme" xmlns="http://www.w3.org/2000/svg" xmlns:xlink="http://www.w3.org/1999/xlink" width="57.52" height="14.472" viewBox="0 0 57.52 14.472">
  <defs>
    <clipPath id="clip-path">
      <rect id="Rectangle_265" data-name="Rectangle 265" width="57.52" height="14.472" fill="none"/>
    </clipPath>
  </defs>
  <g id="Groupe_2876" data-name="Groupe 2876" clip-path="url(#clip-path)">
    <path id="Tracé_4294" data-name="Tracé 4294" d="M9.163,54.515a2.954,2.954,0,0,0-1.479.372,2.59,2.59,0,0,0-1.021,1.04,2.555,2.555,0,0,0-.993-1.05,2.934,2.934,0,0,0-1.489-.363,2.727,2.727,0,0,0-1.346.334,2.505,2.505,0,0,0-.964.964l-.038-.363a.952.952,0,0,0-.277-.64.909.909,0,0,0-.64-.22.9.9,0,0,0-.668.248A.956.956,0,0,0,0,55.546v7.6a.855.855,0,0,0,.267.687,1.172,1.172,0,0,0,.783.229,1.173,1.173,0,0,0,.783-.229.856.856,0,0,0,.267-.687V58.218A2,2,0,0,1,2.472,56.9a1.359,1.359,0,0,1,1.1-.439,1.279,1.279,0,0,1,1.06.439,2.074,2.074,0,0,1,.353,1.317v4.925a.855.855,0,0,0,.267.687,1.172,1.172,0,0,0,.783.229,1.173,1.173,0,0,0,.783-.229.855.855,0,0,0,.267-.687V58.218a2,2,0,0,1,.372-1.308,1.344,1.344,0,0,1,1.1-.449,1.28,1.28,0,0,1,1.06.439,2.075,2.075,0,0,1,.353,1.317v4.925a.845.845,0,0,0,.277.678,1.146,1.146,0,0,0,.773.239,1.179,1.179,0,0,0,.792-.239.846.846,0,0,0,.277-.678V57.989a3.844,3.844,0,0,0-.773-2.568,2.671,2.671,0,0,0-2.148-.907" transform="translate(0 -49.684)" fill="#0ba1b3"/>
    <path id="Tracé_4295" data-name="Tracé 4295" d="M157.27,64.076h-1.413V57.738a1.179,1.179,0,0,0-.238-.792.871.871,0,0,0-.7-.277h-2.558a.979.979,0,0,0-.706.239,1.1,1.1,0,0,0,0,1.394.977.977,0,0,0,.706.239h1.47v5.536h-1.565a.978.978,0,0,0-.706.239,1.092,1.092,0,0,0-.01,1.374.971.971,0,0,0,.716.239h5a.972.972,0,0,0,.716-.239,1.092,1.092,0,0,0-.01-1.374.978.978,0,0,0-.706-.239" transform="translate(-137.905 -51.647)" fill="#0ba1b3"/>
    <path id="Tracé_4296" data-name="Tracé 4296" d="M175.853,3.3a1.456,1.456,0,0,0,1.06-.42,1.43,1.43,0,0,0,.429-1.069,1.408,1.408,0,0,0-.429-1.05,1.457,1.457,0,0,0-1.06-.42,1.476,1.476,0,0,0-1.06.41,1.4,1.4,0,0,0-.429,1.059,1.414,1.414,0,0,0,.439,1.069,1.465,1.465,0,0,0,1.05.42" transform="translate(-158.912 -0.31)" fill="#0ba1b3"/>
    <path id="Tracé_4297" data-name="Tracé 4297" d="M245.028,54.515a3.138,3.138,0,0,0-1.489.353,2.611,2.611,0,0,0-1.05,1l-.038-.42a.951.951,0,0,0-.277-.64,1.032,1.032,0,0,0-1.307.029.955.955,0,0,0-.248.706v7.6a.855.855,0,0,0,.267.687,1.452,1.452,0,0,0,1.565,0,.856.856,0,0,0,.267-.687V58.333a1.976,1.976,0,0,1,.449-1.374,1.623,1.623,0,0,1,1.27-.5,1.579,1.579,0,0,1,1.25.487,2.026,2.026,0,0,1,.43,1.384v4.811a.845.845,0,0,0,.277.678,1.147,1.147,0,0,0,.773.239,1.179,1.179,0,0,0,.792-.239.846.846,0,0,0,.277-.678V57.989a3.6,3.6,0,0,0-.859-2.558,3.063,3.063,0,0,0-2.348-.916" transform="translate(-219.295 -49.684)" fill="#0ba1b3"/>
    <path id="Tracé_4298" data-name="Tracé 4298" d="M568.931,1.031A3.734,3.734,0,0,0,566.153,0a3.823,3.823,0,0,0-2.844,1.06,3.955,3.955,0,0,0-1.05,2.911V5.708a3.818,3.818,0,0,0,1.088,2.883,4.135,4.135,0,0,0,3,1.05,6.347,6.347,0,0,0,1.441-.162,5.362,5.362,0,0,0,1.308-.487,1.223,1.223,0,0,0,.468-.391.9.9,0,0,0,.143-.506.98.98,0,0,0-.248-.678.79.79,0,0,0-.611-.277,1.378,1.378,0,0,0-.315.038,1.927,1.927,0,0,0-.334.115,6.081,6.081,0,0,1-.926.325,3.576,3.576,0,0,1-.85.1,2.124,2.124,0,0,1-1.546-.506,2.037,2.037,0,0,1-.516-1.518v-.21h4.6a.968.968,0,0,0,.745-.267,1.143,1.143,0,0,0,.248-.8V3.856a3.839,3.839,0,0,0-1.021-2.825m-.983,2.883h-3.589V3.742a2.01,2.01,0,0,1,.468-1.432,2.007,2.007,0,0,1,2.653.009,2.017,2.017,0,0,1,.468,1.422Z" transform="translate(-512.432)" fill="#0ba1b3"/>
    <path id="Tracé_4299" data-name="Tracé 4299" d="M350.9,11.054a.972.972,0,0,0-.264-.7,1.452,1.452,0,0,0-1.565,0,.99.99,0,0,0-.262.747,1.909,1.909,0,0,1-3.178.911,2.218,2.218,0,0,1-.477-1.527V8.84a2.219,2.219,0,0,1,.477-1.527,1.963,1.963,0,0,1,2.682-.01,2,2,0,0,1,.484,1.368h.006a.838.838,0,0,0,.264.646,1.452,1.452,0,0,0,1.565,0,.856.856,0,0,0,.267-.687V3.7a2,2,0,0,1,.372-1.317,1.359,1.359,0,0,1,1.1-.439,1.279,1.279,0,0,1,1.059.439,2.073,2.073,0,0,1,.353,1.317V8.629a.855.855,0,0,0,.267.687,1.452,1.452,0,0,0,1.565,0,.856.856,0,0,0,.267-.687V3.7a2,2,0,0,1,.372-1.308,1.345,1.345,0,0,1,1.1-.449,1.279,1.279,0,0,1,1.06.439,2.074,2.074,0,0,1,.353,1.317V8.629a.845.845,0,0,0,.277.678,1.147,1.147,0,0,0,.773.239,1.179,1.179,0,0,0,.792-.239.846.846,0,0,0,.277-.678V3.474a3.843,3.843,0,0,0-.773-2.568A2.671,2.671,0,0,0,357.961,0a2.955,2.955,0,0,0-1.48.372,2.594,2.594,0,0,0-1.021,1.04,2.553,2.553,0,0,0-.993-1.05A2.935,2.935,0,0,0,352.979,0a2.726,2.726,0,0,0-1.346.334,2.507,2.507,0,0,0-.964.964l-.038-.363a.951.951,0,0,0-.277-.64,1.032,1.032,0,0,0-1.308.029.955.955,0,0,0-.248.706V5.989a2.47,2.47,0,0,0-.945-.862,2.889,2.889,0,0,0-1.327-.3A3.185,3.185,0,0,0,344,5.891a4.333,4.333,0,0,0-.926,2.949v1.642a4.419,4.419,0,0,0,.888,2.94,3.348,3.348,0,0,0,3.952.687,2.844,2.844,0,0,0,1.079-.993l.057.439a.965.965,0,0,0,.286.62.955.955,0,0,0,.649.2.924.924,0,0,0,.668-.239.9.9,0,0,0,.248-.678V11.054Z" transform="translate(-312.669)" fill="#0ba1b3"/>
  </g>
</svg>
