<svg xmlns="http://www.w3.org/2000/svg" xmlns:xlink="http://www.w3.org/1999/xlink" width="58" height="58" viewBox="0 0 58 58">
  <defs>
    <clipPath id="clip-path">
      <rect id="Rectangle_88" data-name="Rectangle 88" width="43.5" height="43.794" fill="#00aca8"/>
    </clipPath>
  </defs>
  <g id="Groupe_3043" data-name="Groupe 3043" transform="translate(-63 -5998)">
    <circle id="Ellipse_17" data-name="Ellipse 17" cx="29" cy="29" r="29" transform="translate(63 5998)" fill="#fff" opacity="0.15"/>
    <g id="Groupe_93" data-name="Groupe 93" transform="translate(73.875 6002.35)">
      <g id="Groupe_92" data-name="Groupe 92" clip-path="url(#clip-path)">
        <path id="Tracé_203" data-name="Tracé 203" d="M351.65,109.917a.641.641,0,0,0,.837-.35l.386-.939a3.15,3.15,0,0,0,1.379.874,3.107,3.107,0,0,0,.933.143,3.145,3.145,0,0,0,2.593-4.93l1-.167a.642.642,0,1,0-.212-1.265l-.933.156a3.226,3.226,0,0,0,.08-1.444,3.118,3.118,0,0,0-4.809-2.1,3.119,3.119,0,0,0-1.369,1.99,3.145,3.145,0,1,0,.142,6.284l-.373.907A.642.642,0,0,0,351.65,109.917Zm-.984-3.207a1.862,1.862,0,0,1,1.288-3.476.642.642,0,0,0,.805-.657,1.875,1.875,0,0,1,2.649-1.746l.026.012a1.882,1.882,0,0,1,.507,2.988.647.647,0,0,0,.134,1.033A1.862,1.862,0,1,1,353.4,107a.647.647,0,0,0-.951-.376A1.863,1.863,0,0,1,350.665,106.71Z" transform="translate(-318.537 -90.866)" fill="#00aca8"/>
        <path id="Tracé_204" data-name="Tracé 204" d="M286.838,65.276h-11.88a2.279,2.279,0,0,0-2.276,2.276V83.044a.954.954,0,0,1-.361.75l-3.49,2.782a.642.642,0,0,0,.8,1l3.49-2.782a2.23,2.23,0,0,0,.844-1.753V81.481a2.261,2.261,0,0,0,.993.229h7.52a.642.642,0,0,0,0-1.283h-7.52a.994.994,0,0,1-.993-.993V67.552a.994.994,0,0,1,.993-.993h11.88a.994.994,0,0,1,.993.993v11.88a.994.994,0,0,1-.993.993h-1.366a.642.642,0,0,0,0,1.283h1.366a2.279,2.279,0,0,0,2.276-2.276V67.552A2.279,2.279,0,0,0,286.838,65.276Z" transform="translate(-245.614 -59.693)" fill="#00aca8"/>
        <path id="Tracé_205" data-name="Tracé 205" d="M32.99,42.511H30.468v-1.6a4.927,4.927,0,0,0-4.812-4.92V34.477a1.631,1.631,0,0,0-.987-1.5V31.669a1.6,1.6,0,0,0-1.6-1.6H16.439a1.6,1.6,0,0,0-1.6,1.6v1.178A10.5,10.5,0,0,1,7.078,15.368a10.721,10.721,0,0,1,6.162-3.428,3.23,3.23,0,1,0,2.814-5.609,3.759,3.759,0,0,1,7.448.725V17.8a.391.391,0,0,1-.391.39H16.373a.39.39,0,0,1-.39-.39V15.074a.642.642,0,0,0-1.283,0V17.8a1.675,1.675,0,0,0,1.673,1.673h.578v3.849a1.675,1.675,0,0,0,1.673,1.673H20.86a1.675,1.675,0,0,0,1.673-1.673V19.47h.577A1.675,1.675,0,0,0,24.784,17.8V7.056a5.086,5.086,0,0,0-5.043-5.042A5.026,5.026,0,0,0,16.13,3.53L11.218.293A1.8,1.8,0,0,0,8.753.778L7.624,2.429a1.792,1.792,0,0,0,.494,2.507l4.069,2.681A14.929,14.929,0,0,0,9.082,36.028a4.929,4.929,0,0,0-4.3,4.882v1.6H2.264a.642.642,0,0,0,0,1.283H22.416a.642.642,0,0,0,0-1.283H6.069v-1.6a3.644,3.644,0,0,1,3.64-3.64H25.546a3.644,3.644,0,0,1,3.64,3.64v1.6H25.416a.642.642,0,1,0,0,1.283H32.99a.642.642,0,1,0,0-1.283ZM21.25,23.319a.391.391,0,0,1-.39.39H18.624a.391.391,0,0,1-.39-.39V19.47H21.25Zm-5.126,8.35a.315.315,0,0,1,.315-.315h6.632a.315.315,0,0,1,.315.315v1.179H16.124ZM17.279,9.48a1.948,1.948,0,1,1-1.948-1.948A1.95,1.95,0,0,1,17.279,9.48M8.824,3.865a.509.509,0,0,1-.141-.712L9.812,1.5a.511.511,0,0,1,.7-.138l4.845,3.192a5.018,5.018,0,0,0-.6,1.744,3.216,3.216,0,0,0-1.349.584ZM24.373,35.641a.346.346,0,0,1-.346.346H15.095A13.673,13.673,0,0,1,12.147,8.933a3.447,3.447,0,0,0,.238,1.871,12.011,12.011,0,0,0-6.265,3.71,11.8,11.8,0,0,0,8.837,19.617h9.072a.346.346,0,0,1,.346.346Z" transform="translate(0 0)" fill="#00aca8"/>
        <path id="Tracé_206" data-name="Tracé 206" d="M362.622,102.174a.642.642,0,1,1-.642.641.642.642,0,0,1,.642-.641" transform="translate(-331.018 -93.435)" fill="#00aca8"/>
        <path id="Tracé_207" data-name="Tracé 207" d="M377.813,158.368a.642.642,0,1,1-.642.642.642.642,0,0,1,.642-.642" transform="translate(-344.91 -144.822)" fill="#00aca8"/>
        <path id="Tracé_208" data-name="Tracé 208" d="M415.884,127.07a.642.642,0,1,1-.641.642.642.642,0,0,1,.641-.642" transform="translate(-379.725 -116.201)" fill="#00aca8"/>
        <path id="Tracé_209" data-name="Tracé 209" d="M422.375,176.809a.642.642,0,1,1-.641.642.642.642,0,0,1,.641-.642" transform="translate(-385.661 -161.686)" fill="#00aca8"/>
      </g>
    </g>
  </g>
</svg>
