<svg id="Groupe_3022" data-name="Groupe 3022" xmlns="http://www.w3.org/2000/svg" xmlns:xlink="http://www.w3.org/1999/xlink" width="35" height="39.823" viewBox="0 0 35 39.823">
  <defs>
    <clipPath id="clip-path">
      <rect id="Rectangle_292" data-name="Rectangle 292" width="35" height="39.823" fill="none"/>
    </clipPath>
  </defs>
  <g id="Groupe_3021" data-name="Groupe 3021" clip-path="url(#clip-path)">
    <path id="Tracé_4344" data-name="Tracé 4344" d="M24.746,11.935a8.166,8.166,0,1,0-14.491,0A13.018,13.018,0,0,0,0,24.659V26.3a14,14,0,0,0,4.129,9.968,4.142,4.142,0,0,0,2.947,1.221,4.1,4.1,0,0,0,3.938-2.849c1.571,1.4,3.651,3.105,5.72,4.9a1.166,1.166,0,0,0,1.529,0c2.086-1.807,4.148-3.487,5.722-4.9a4.092,4.092,0,0,0,3.937,2.85,4.145,4.145,0,0,0,2.948-1.221A14,14,0,0,0,35,26.3V24.659A13.021,13.021,0,0,0,24.746,11.935M17.5,2.338a5.834,5.834,0,1,1-5.834,5.834h0A5.84,5.84,0,0,1,17.5,2.338m7.342,28.186h0c-.4.461-.869.945-1.413,1.464-1.564,1.494-3.578,3.122-5.921,5.13-5.578-4.774-9.275-7.386-9.275-10.879a4.2,4.2,0,0,1,3.892-4.487c.052,0,.1-.007.158-.008A3.757,3.757,0,0,1,15.4,23.465a6.951,6.951,0,0,1,.98,1.943,1.166,1.166,0,0,0,2.247,0,6.956,6.956,0,0,1,.98-1.947,3.758,3.758,0,0,1,3.109-1.722,4.2,4.2,0,0,1,4.059,4.337c0,.053,0,.1-.008.158a6.356,6.356,0,0,1-1.925,4.29m7.825-4.214a11.687,11.687,0,0,1-3.445,8.319,1.833,1.833,0,0,1-2.675-2.5,8.825,8.825,0,0,0,2.554-5.88,6.515,6.515,0,0,0-6.194-6.822c-.063,0-.126-.006-.189-.007a6.065,6.065,0,0,0-5.04,2.748c-.06.084-.118.168-.172.251-.055-.083-.112-.167-.172-.251a6.065,6.065,0,0,0-5.04-2.748,6.516,6.516,0,0,0-6.39,6.64c0,.063,0,.126.007.189a8.78,8.78,0,0,0,2.52,5.838,1.844,1.844,0,0,1-1.347,3.08,1.82,1.82,0,0,1-1.3-.538,11.687,11.687,0,0,1-3.445-8.319V24.659a10.709,10.709,0,0,1,9.506-10.608,8.153,8.153,0,0,0,11.322,0,10.709,10.709,0,0,1,9.506,10.608Z" transform="translate(0 -0.002)" fill="#fff"/>
  </g>
</svg>
