<svg xmlns="http://www.w3.org/2000/svg" xmlns:xlink="http://www.w3.org/1999/xlink" width="57" height="57" viewBox="0 0 57 57">
  <defs>
    <clipPath id="clip-path">
      <rect id="Rectangle_85" data-name="Rectangle 85" width="42.75" height="39.448" fill="#00aca8"/>
    </clipPath>
  </defs>
  <g id="Groupe_3042" data-name="Groupe 3042" transform="translate(-79 -5998)">
    <circle id="Ellipse_17" data-name="Ellipse 17" cx="28.5" cy="28.5" r="28.5" transform="translate(79 5998)" fill="#fff" opacity="0.15"/>
    <g id="Groupe_87" data-name="Groupe 87" transform="translate(87.55 6005.125)">
      <g id="Groupe_86" data-name="Groupe 86" clip-path="url(#clip-path)">
        <path id="Tracé_166" data-name="Tracé 166" d="M77.842,420.06a.626.626,0,0,0-.626.626v3.122a.626.626,0,1,0,1.252,0v-3.122a.626.626,0,0,0-.626-.626" transform="translate(-70.769 -384.987)" fill="#00aca8"/>
        <path id="Tracé_167" data-name="Tracé 167" d="M296.244,420.06a.626.626,0,0,0-.626.626v3.122a.626.626,0,0,0,1.252,0v-3.122a.626.626,0,0,0-.626-.626" transform="translate(-270.935 -384.987)" fill="#00aca8"/>
        <path id="Tracé_168" data-name="Tracé 168" d="M123.165,135.61a3.046,3.046,0,0,0-2.909,2.158,3.227,3.227,0,0,0-1.672.01,3.041,3.041,0,1,0,.1,1.279,2.017,2.017,0,0,1,1.467-.005,3.04,3.04,0,1,0,3.013-3.442Zm-7.493,4.828a1.788,1.788,0,1,1,1.787-1.808c0,.012,0,.023,0,.035A1.79,1.79,0,0,1,115.672,140.438Zm7.493,0a1.788,1.788,0,1,1,1.788-1.788,1.79,1.79,0,0,1-1.788,1.788" transform="translate(-103.227 -124.287)" fill="#00aca8"/>
        <path id="Tracé_169" data-name="Tracé 169" d="M355.115,139.241a.626.626,0,0,0,.817-.341l.376-.915a3.075,3.075,0,0,0,1.344.852,3.034,3.034,0,0,0,.91.14,3.068,3.068,0,0,0,2.53-4.809l.97-.162a.626.626,0,0,0-.206-1.235l-.91.152a3.148,3.148,0,0,0,.078-1.408,3.042,3.042,0,0,0-4.691-2.046A3.044,3.044,0,0,0,355,131.409a3.069,3.069,0,1,0,.139,6.131l-.363.884A.626.626,0,0,0,355.115,139.241Zm-.96-3.13a1.816,1.816,0,0,1,1.256-3.39.626.626,0,0,0,.786-.642,1.829,1.829,0,0,1,2.584-1.7l.025.012a1.836,1.836,0,0,1,.494,2.914.632.632,0,0,0,.131,1.008,1.816,1.816,0,1,1-2.614,2.084.632.632,0,0,0-.928-.367A1.817,1.817,0,0,1,354.155,136.112Z" transform="translate(-322.498 -118.181)" fill="#00aca8"/>
        <path id="Tracé_170" data-name="Tracé 170" d="M40.529,7.922H28.94a2.206,2.206,0,0,0-.969.223V5.191A5.2,5.2,0,0,0,22.78,0H10.229A2.586,2.586,0,0,0,7.715,2a3.869,3.869,0,0,0-3.3,3.823V9.009a.626.626,0,0,0,1.252,0V5.818A2.613,2.613,0,0,1,8.274,3.208.626.626,0,0,0,8.9,2.581a1.331,1.331,0,0,1,1.329-1.329H22.78a3.943,3.943,0,0,1,3.939,3.939v6.132H25.332V9a1.667,1.667,0,0,0-2.115-1.605l-3.342.932a13.708,13.708,0,0,1-7.368,0L9.165,7.393A1.667,1.667,0,0,0,7.051,9v2.324H5.037a1.734,1.734,0,0,0-1.732,1.732v2.583A1.734,1.734,0,0,0,5.037,17.37H7.052a6.169,6.169,0,0,0,5.673,6.1v2.95H4.971A4.977,4.977,0,0,0,0,31.387v7.434a.626.626,0,0,0,1.252,0V31.387a3.723,3.723,0,0,1,3.719-3.719H7.648v4.559a2.825,2.825,0,0,0,.522,1.641l3.763,5.315a.626.626,0,1,0,1.022-.724L9.192,33.145a1.579,1.579,0,0,1-.292-.917V27.669h1.294l5.371,8.225v2.928a.626.626,0,1,0,1.252,0V35.894l5.371-8.225h1.294v4.559a1.578,1.578,0,0,1-.292.917L19.427,38.46a.626.626,0,1,0,1.022.724l3.763-5.315a2.825,2.825,0,0,0,.522-1.641V27.669h2.677a3.723,3.723,0,0,1,3.718,3.719v7.434a.626.626,0,0,0,1.252,0V31.387a4.977,4.977,0,0,0-4.971-4.971H19.658v-2.95a6.169,6.169,0,0,0,5.673-6.1h1.389v4.362a2.223,2.223,0,0,0,2.221,2.221h7.081a.626.626,0,1,0,0-1.252H28.94a.97.97,0,0,1-.968-.968V10.143a.97.97,0,0,1,.968-.968H40.529a.97.97,0,0,1,.968.968V21.732a.97.97,0,0,1-.968.968H38.946a.626.626,0,1,0,0,1.252h1.583a2.207,2.207,0,0,0,.968-.223v2.777a.93.93,0,0,1-.352.731l-3.4,2.714a.626.626,0,1,0,.781.979l3.4-2.714a2.176,2.176,0,0,0,.824-1.71V10.143A2.224,2.224,0,0,0,40.529,7.922ZM4.558,15.638V13.055a.48.48,0,0,1,.479-.479H7.051v3.542H5.037a.48.48,0,0,1-.479-.479M19.2,29.959a1.018,1.018,0,0,1-1.378.319l-.634-.378L19.3,27.669h1.391Zm-6.011,0-1.5-2.29h1.391L15.2,29.9l-.634.378A1.019,1.019,0,0,1,13.186,29.959Zm1.111,1.7a2.273,2.273,0,0,0,.908-.307l.987-.588.987.588a2.275,2.275,0,0,0,.908.307l-1.894,2.9Zm4.109-4.868-2.214,2.334-2.214-2.334V23.487h4.429Zm.764-4.558H13.213a4.915,4.915,0,0,1-4.91-4.91V9a.407.407,0,0,1,.164-.33.412.412,0,0,1,.248-.085.426.426,0,0,1,.114.016l3.342.932a14.96,14.96,0,0,0,8.041,0L23.554,8.6a.414.414,0,0,1,.526.4v8.326A4.915,4.915,0,0,1,19.17,22.235Zm6.162-9.66h1.387v3.543H25.332Z" fill="#00aca8"/>
        <path id="Tracé_171" data-name="Tracé 171" d="M187.043,200.057a.626.626,0,0,0-.626.626v.8a.626.626,0,0,0,1.252,0v-.8a.626.626,0,0,0-.626-.626" transform="translate(-170.852 -183.353)" fill="#00aca8"/>
        <path id="Tracé_172" data-name="Tracé 172" d="M366.146,131.756a.626.626,0,1,1-.626.626.626.626,0,0,1,.626-.626" transform="translate(-335.001 -120.755)" fill="#00aca8"/>
        <path id="Tracé_173" data-name="Tracé 173" d="M381.336,187.946a.626.626,0,1,1-.626.626.626.626,0,0,1,.626-.626" transform="translate(-348.922 -172.253)" fill="#00aca8"/>
        <path id="Tracé_174" data-name="Tracé 174" d="M419.406,156.649a.626.626,0,1,1-.626.626.626.626,0,0,1,.626-.626" transform="translate(-383.814 -143.569)" fill="#00aca8"/>
        <path id="Tracé_175" data-name="Tracé 175" d="M425.9,206.386a.626.626,0,1,1-.626.626.626.626,0,0,1,.626-.626" transform="translate(-389.762 -189.154)" fill="#00aca8"/>
      </g>
    </g>
  </g>
</svg>
