<svg id="Groupe_2997" data-name="Groupe 2997" xmlns="http://www.w3.org/2000/svg" xmlns:xlink="http://www.w3.org/1999/xlink" width="20" height="17.352" viewBox="0 0 20 17.352">
  <defs>
    <clipPath id="clip-path">
      <rect id="Rectangle_272" data-name="Rectangle 272" width="20" height="17.352" fill="#00aca8"/>
    </clipPath>
  </defs>
  <g id="Groupe_2996" data-name="Groupe 2996" clip-path="url(#clip-path)">
    <path id="Tracé_4305" data-name="Tracé 4305" d="M0,.667a.667.667,0,0,0,.667.667A13.726,13.726,0,0,1,14.377,15.074L11.2,11.9a.668.668,0,0,0-.944.944l4.312,4.312h0a.667.667,0,0,0,.944,0l4.312-4.312a.667.667,0,0,0-.941-.944l-3.174,3.174A15.061,15.061,0,0,0,.667,0,.667.667,0,0,0,0,.667" fill="#00aca8"/>
  </g>
</svg>
