<svg xmlns="http://www.w3.org/2000/svg" xmlns:xlink="http://www.w3.org/1999/xlink" width="59" height="59" viewBox="0 0 59 59">
  <defs>
    <clipPath id="clip-path">
      <rect id="Rectangle_86" data-name="Rectangle 86" width="44.25" height="43.167" fill="#00aca8"/>
    </clipPath>
  </defs>
  <g id="Groupe_3040" data-name="Groupe 3040" transform="translate(-79 -5996)">
    <circle id="Ellipse_17" data-name="Ellipse 17" cx="29.5" cy="29.5" r="29.5" transform="translate(79 5996)" fill="#fff" opacity="0.15"/>
    <g id="Groupe_89" data-name="Groupe 89" transform="translate(88.588 6001.9)">
      <g id="Groupe_88" data-name="Groupe 88" clip-path="url(#clip-path)">
        <path id="Tracé_176" data-name="Tracé 176" d="M362.206,72.762l-.942.157a3.26,3.26,0,0,0,.081-1.458,3.149,3.149,0,0,0-4.856-2.118,3.15,3.15,0,0,0-1.382,2.009,3.176,3.176,0,1,0,.143,6.346l-.376.915a.648.648,0,1,0,1.2.493l.389-.947a3.182,3.182,0,0,0,1.392.882,3.14,3.14,0,0,0,.942.145,3.176,3.176,0,0,0,2.619-4.978l1-.168a.648.648,0,0,0-.214-1.279Zm-1.7,4.049a1.879,1.879,0,0,1-3.511-.3.651.651,0,0,0-.96-.379,1.879,1.879,0,1,1-.5-3.423.648.648,0,0,0,.814-.664,1.893,1.893,0,0,1,2.674-1.763l.026.012a1.9,1.9,0,0,1,.512,3.016.654.654,0,0,0,.135,1.043,1.882,1.882,0,0,1,.806,2.453" transform="translate(-321.466 -62.859)" fill="#00aca8"/>
        <path id="Tracé_177" data-name="Tracé 177" d="M334.3,34.743h-12a2.3,2.3,0,0,0-2.3,2.3v12a2.3,2.3,0,0,0,2.3,2.3h12a2.285,2.285,0,0,0,1-.23V53.98a.962.962,0,0,1-.365.757l-3.524,2.809a.648.648,0,0,0,.808,1.014l3.524-2.809a2.253,2.253,0,0,0,.853-1.77V37.042a2.3,2.3,0,0,0-2.3-2.3m0,15.3h-12a1,1,0,0,1-1-1v-12a1,1,0,0,1,1-1h12a1,1,0,0,1,1,1v12A1,1,0,0,1,334.3,50.04Z" transform="translate(-292.351 -31.74)" fill="#00aca8"/>
        <path id="Tracé_178" data-name="Tracé 178" d="M39,38.622H37.49V22.708h1.048a.648.648,0,1,0,0-1.3H24.085V4.6h1.357a.648.648,0,1,0,0-1.3H17.386V1.821A1.823,1.823,0,0,0,15.565,0h-4.27A1.823,1.823,0,0,0,9.473,1.821v4.27a1.823,1.823,0,0,0,1.821,1.821h4.27a1.823,1.823,0,0,0,1.821-1.821V4.6h5.4V38.622h-4V28.195a1.886,1.886,0,0,0-1.883-1.883H9.953a1.886,1.886,0,0,0-1.883,1.883V38.622h-4V4.6H7.1a.648.648,0,0,0,0-1.3H1.4a.648.648,0,1,0,0,1.3H2.775V38.622H1.583A1.585,1.585,0,0,0,0,40.206v1.378a1.585,1.585,0,0,0,1.583,1.583H39a1.585,1.585,0,0,0,1.583-1.583V40.206A1.585,1.585,0,0,0,39,38.622ZM15.565,6.617h-4.27a.526.526,0,0,1-.525-.525V1.821a.526.526,0,0,1,.525-.525h4.27a.526.526,0,0,1,.525.525v4.27a.526.526,0,0,1-.525.525M36.193,35.04H29.23a.277.277,0,0,1-.277-.277V33.519a.277.277,0,0,1,.277-.277h6.963Zm0-6.677H29.23a.277.277,0,0,1-.277-.277V26.842a.277.277,0,0,1,.277-.277h6.963Zm-18.7-.169V38.622H14.078V27.608h2.829a.588.588,0,0,1,.587.587m-8.129,0a.588.588,0,0,1,.587-.587h2.829V38.622H9.366ZM39.288,41.584a.287.287,0,0,1-.287.287H1.583a.287.287,0,0,1-.287-.287V40.206a.287.287,0,0,1,.287-.287H23.437a.648.648,0,0,0,.648-.648V22.708H36.193v2.561H29.23a1.575,1.575,0,0,0-1.573,1.573v1.244a1.575,1.575,0,0,0,1.573,1.573h6.963v2.286H29.23a1.575,1.575,0,0,0-1.573,1.573v1.244a1.575,1.575,0,0,0,1.573,1.573h6.963v2.286H26.465a.648.648,0,0,0,0,1.3H39a.287.287,0,0,1,.287.287Z" fill="#00aca8"/>
        <path id="Tracé_179" data-name="Tracé 179" d="M138.444,27.127h-.407V26.72a.648.648,0,0,0-1.3,0v.407h-.407a.648.648,0,0,0,0,1.3h.407v.407a.648.648,0,0,0,1.3,0v-.407h.407a.648.648,0,0,0,0-1.3" transform="translate(-123.959 -23.819)" fill="#00aca8"/>
        <path id="Tracé_180" data-name="Tracé 180" d="M68.846,114.846a.648.648,0,1,0,0,1.3h1.126a.648.648,0,1,0,0-1.3Z" transform="translate(-62.304 -104.92)" fill="#00aca8"/>
        <path id="Tracé_181" data-name="Tracé 181" d="M127.193,114.846h-9.559a.648.648,0,1,0,0,1.3h9.559a.648.648,0,1,0,0-1.3" transform="translate(-106.875 -104.92)" fill="#00aca8"/>
        <path id="Tracé_182" data-name="Tracé 182" d="M68.846,153.106h1.126a.648.648,0,0,0,0-1.3H68.846a.648.648,0,0,0,0,1.3" transform="translate(-62.304 -138.69)" fill="#00aca8"/>
        <path id="Tracé_183" data-name="Tracé 183" d="M117.634,153.106h1.126a.648.648,0,0,0,0-1.3h-1.126a.648.648,0,0,0,0,1.3" transform="translate(-106.875 -138.69)" fill="#00aca8"/>
        <path id="Tracé_184" data-name="Tracé 184" d="M166.422,153.106h1.126a.648.648,0,0,0,0-1.3h-1.126a.648.648,0,0,0,0,1.3" transform="translate(-151.447 -138.69)" fill="#00aca8"/>
        <path id="Tracé_185" data-name="Tracé 185" d="M216.337,151.81h-1.126a.648.648,0,0,0,0,1.3h1.126a.648.648,0,0,0,0-1.3" transform="translate(-196.019 -138.69)" fill="#00aca8"/>
        <path id="Tracé_186" data-name="Tracé 186" d="M68.2,189.422a.648.648,0,0,0,.648.648h5.342a.648.648,0,0,0,0-1.3H68.846a.648.648,0,0,0-.648.648" transform="translate(-62.304 -172.459)" fill="#00aca8"/>
        <path id="Tracé_187" data-name="Tracé 187" d="M166.422,190.07h1.126a.648.648,0,0,0,0-1.3h-1.126a.648.648,0,0,0,0,1.3" transform="translate(-151.447 -172.459)" fill="#00aca8"/>
        <path id="Tracé_188" data-name="Tracé 188" d="M216.337,188.774h-1.126a.648.648,0,1,0,0,1.3h1.126a.648.648,0,0,0,0-1.3" transform="translate(-196.019 -172.459)" fill="#00aca8"/>
        <path id="Tracé_189" data-name="Tracé 189" d="M69.972,225.737H68.846a.648.648,0,0,0,0,1.3h1.126a.648.648,0,0,0,0-1.3" transform="translate(-62.304 -206.228)" fill="#00aca8"/>
        <path id="Tracé_190" data-name="Tracé 190" d="M118.761,225.737h-1.126a.648.648,0,0,0,0,1.3h1.126a.648.648,0,0,0,0-1.3" transform="translate(-106.876 -206.228)" fill="#00aca8"/>
        <path id="Tracé_191" data-name="Tracé 191" d="M166.422,227.033h1.126a.648.648,0,0,0,0-1.3h-1.126a.648.648,0,0,0,0,1.3" transform="translate(-151.447 -206.228)" fill="#00aca8"/>
        <path id="Tracé_192" data-name="Tracé 192" d="M216.337,225.737h-1.126a.648.648,0,0,0,0,1.3h1.126a.648.648,0,0,0,0-1.3" transform="translate(-196.019 -206.228)" fill="#00aca8"/>
        <path id="Tracé_193" data-name="Tracé 193" d="M69.972,262.7H68.846a.648.648,0,0,0,0,1.3h1.126a.648.648,0,0,0,0-1.3" transform="translate(-62.304 -239.997)" fill="#00aca8"/>
        <path id="Tracé_194" data-name="Tracé 194" d="M118.761,262.7h-1.126a.648.648,0,0,0,0,1.3h1.126a.648.648,0,0,0,0-1.3" transform="translate(-106.876 -239.997)" fill="#00aca8"/>
        <path id="Tracé_195" data-name="Tracé 195" d="M166.422,264h5.342a.648.648,0,0,0,0-1.3h-5.342a.648.648,0,0,0,0,1.3" transform="translate(-151.447 -239.997)" fill="#00aca8"/>
        <path id="Tracé_196" data-name="Tracé 196" d="M366.169,71.613a.648.648,0,1,1-.648.648.648.648,0,0,1,.648-.648" transform="translate(-333.931 -65.424)" fill="#00aca8"/>
        <path id="Tracé_197" data-name="Tracé 197" d="M381.358,127.8a.648.648,0,1,1-.648.648.648.648,0,0,1,.648-.648" transform="translate(-347.807 -116.758)" fill="#00aca8"/>
        <path id="Tracé_198" data-name="Tracé 198" d="M419.428,96.507a.648.648,0,1,1-.648.648.648.648,0,0,1,.648-.648" transform="translate(-382.587 -88.166)" fill="#00aca8"/>
        <path id="Tracé_199" data-name="Tracé 199" d="M425.919,146.243a.648.648,0,1,1-.648.648.648.648,0,0,1,.648-.648" transform="translate(-388.517 -133.604)" fill="#00aca8"/>
      </g>
    </g>
  </g>
</svg>
