<svg xmlns="http://www.w3.org/2000/svg" xmlns:xlink="http://www.w3.org/1999/xlink" width="60" height="62" viewBox="0 0 60 62">
  <defs>
    <clipPath id="clip-path">
      <rect id="Rectangle_87" data-name="Rectangle 87" width="44.819" height="54.411" fill="#00aca8"/>
    </clipPath>
  </defs>
  <g id="Groupe_3041" data-name="Groupe 3041" transform="translate(-63 -5993)">
    <circle id="Ellipse_17" data-name="Ellipse 17" cx="30" cy="30" r="30" transform="translate(63 5995)" fill="#fff" opacity="0.15"/>
    <g id="Groupe_91" data-name="Groupe 91" transform="translate(71.217 5993)">
      <g id="Groupe_90" data-name="Groupe 90" clip-path="url(#clip-path)">
        <path id="Tracé_200" data-name="Tracé 200" d="M165.958,42.921a7.433,7.433,0,0,0,1.909,2.98l1.953,1.852a.8.8,0,0,0,1.1,0l1.953-1.852a7.448,7.448,0,0,0,2.314-5.382,4.815,4.815,0,0,0-9.63,0A7.881,7.881,0,0,0,165.958,42.921Zm5.814,1.823-1.4,1.332-1.4-1.332a5.8,5.8,0,0,1-1.13-1.491,21.252,21.252,0,0,1,5.069,0,5.806,5.806,0,0,1-1.13,1.491m-1.4-7.446a3.225,3.225,0,0,1,3.221,3.221,5.782,5.782,0,0,1-.127,1.2,22.828,22.828,0,0,0-6.188,0,5.784,5.784,0,0,1-.127-1.2A3.225,3.225,0,0,1,170.368,37.3Z" transform="translate(-147.959 -31.909)" fill="#00aca8"/>
        <path id="Tracé_201" data-name="Tracé 201" d="M44.729,30A22.407,22.407,0,0,0,34.042,12.848a.8.8,0,1,0-.829,1.362,21.031,21.031,0,0,1,6.362,6.022l-6.2,5.71a4.34,4.34,0,0,0-1.4,3.184v4.8A4.328,4.328,0,0,0,33.862,37.5l1.34.917a3.1,3.1,0,0,1,1.154,1.464l2.07,5.422A20.772,20.772,0,0,1,33.2,49.808a4.748,4.748,0,0,0-3.848-2.072H24a4.61,4.61,0,0,0-3.281,1.383c-.4.411-1.739,1.783-3.065,3.157A20.823,20.823,0,0,1,1.594,32.006c0-.661.032-1.323.093-1.976H3.8a3.67,3.67,0,0,0,2.162-.7L12.2,24.82a3.7,3.7,0,0,0,1.529-2.99V17.8A3.308,3.308,0,0,0,12.3,15.081l-.993-.686a20.771,20.771,0,0,1,3.271-1.682A11.229,11.229,0,0,0,17.3,16.745l1.25,1.186-2.488,2.488a1.476,1.476,0,0,0-.327,1.595,1.623,1.623,0,0,0,1.608.934,1.54,1.54,0,0,0,1.484,1.715,1.476,1.476,0,0,0,1.044-.433l2.539-2.539,2.5,2.5a1.462,1.462,0,0,0,1.565.338,1.637,1.637,0,0,0,.975-1.608,1.641,1.641,0,0,0,1.607-.975,1.462,1.462,0,0,0-.338-1.565L26.27,17.93l1.25-1.186a11.258,11.258,0,0,0,3.5-8.136,8.609,8.609,0,1,0-17.218,0,11.15,11.15,0,0,0,.3,2.577,22.417,22.417,0,0,0,3.652,42.745,22.608,22.608,0,0,0,15.623-2.38A22.426,22.426,0,0,0,44.729,30ZM22.409,1.594a7.023,7.023,0,0,1,7.015,7.015,9.657,9.657,0,0,1-3,6.979l-1.844,1.749a.8.8,0,0,0-.015,1.142l2.843,2.843-.762.05a.8.8,0,0,0-.743.743l-.05.763L22.972,20a.8.8,0,0,0-1.127,0l-2.91,2.911-.018-.76a.8.8,0,0,0-.779-.778l-.759-.018,2.874-2.874a.8.8,0,0,0-.015-1.142l-1.844-1.749a9.658,9.658,0,0,1-3-6.979A7.023,7.023,0,0,1,22.409,1.594ZM12.139,17.8V21.83a2.1,2.1,0,0,1-.869,1.7l-6.237,4.51a2.087,2.087,0,0,1-1.229.4H1.9a20.923,20.923,0,0,1,8-13.074L11.4,16.393A1.714,1.714,0,0,1,12.139,17.8Zm9.784,35.011a20.712,20.712,0,0,1-2.385-.191c1.053-1.088,2-2.057,2.324-2.391A3.007,3.007,0,0,1,24,49.33h5.348a3.141,3.141,0,0,1,2.44,1.258A20.856,20.856,0,0,1,21.923,52.814Zm21.3-20.384A20.607,20.607,0,0,1,39.56,43.8L37.845,39.31A4.686,4.686,0,0,0,36.1,37.1l-1.339-.917a2.735,2.735,0,0,1-1.19-2.257v-4.8a2.742,2.742,0,0,1,.882-2.011L40.44,21.6A20.805,20.805,0,0,1,43.219,32.43Z" fill="#00aca8"/>
        <path id="Tracé_202" data-name="Tracé 202" d="M84.358,278.369a1.639,1.639,0,0,1-3.029-.563l-.374-2.242a.8.8,0,0,0-1.573.262l.374,2.242a3.234,3.234,0,0,0,5.975,1.11l4.03-6.838a5.277,5.277,0,0,0,.323-4.687l-2.183-5.24a4.115,4.115,0,0,0-3.809-2.539c-1.255.038-3.126-.2-4.309.473l-4.347,2.283a2.369,2.369,0,0,0-1.271,2.1v1.477a2.378,2.378,0,0,0,1.215,2.072l2.233,1.251a1.886,1.886,0,0,1,.943,1.342l.173,1.035a.8.8,0,1,0,1.573-.262l-.173-1.035a3.473,3.473,0,0,0-1.737-2.471l-2.233-1.25a.782.782,0,0,1-.4-.682v-1.477a.779.779,0,0,1,.418-.691l4.347-2.283c.606-.438,2.838-.258,3.568-.29a2.525,2.525,0,0,1,2.337,1.558l2.183,5.24a3.674,3.674,0,0,1-.225,3.264Z" transform="translate(-66.285 -232.248)" fill="#00aca8"/>
      </g>
    </g>
  </g>
</svg>
