<svg id="Groupe_3020" data-name="Groupe 3020" xmlns="http://www.w3.org/2000/svg" xmlns:xlink="http://www.w3.org/1999/xlink" width="28" height="40.152" viewBox="0 0 28 40.152">
  <defs>
    <clipPath id="clip-path">
      <rect id="Rectangle_291" data-name="Rectangle 291" width="28" height="40.152" fill="#fff"/>
    </clipPath>
  </defs>
  <g id="Groupe_3019" data-name="Groupe 3019" clip-path="url(#clip-path)">
    <path id="Tracé_4343" data-name="Tracé 4343" d="M.055,34.143a1.177,1.177,0,0,0,.9.8l3.489.684.523,3.52a1.177,1.177,0,0,0,2,.659l7.131-7.131,6.675,7.093a1.177,1.177,0,0,0,2.021-.629l.535-3.494,3.666-.514a1.177,1.177,0,0,0,.687-1.979l-7.258-7.592C24.1,22,26.665,17.688,26.644,12.917A12.917,12.917,0,1,0,.81,12.939c-.05,4.9,2.779,8.87,6.618,12.659l-7.1,7.375A1.177,1.177,0,0,0,.055,34.143Zm7.2-12.167c-2.712-2.9-4.088-5.937-4.088-9.037a10.563,10.563,0,1,1,21.126-.021c.006,4.19-2.3,7.832-5.542,10.981l-3.332-3.181a48.9,48.9,0,0,0,3.521-3.83c1.771-2.267,2.3-5.347.315-7.381a4.049,4.049,0,0,0-5.522-.121,4.1,4.1,0,0,0-6.8,3.047,7.467,7.467,0,0,0,1.587,4.441,53.493,53.493,0,0,0,4.4,4.71L24.385,33.12l-2.259.317a1.177,1.177,0,0,0-1,.988l-.3,1.972Zm3.153-6.509a5.072,5.072,0,0,1-1.121-3.035,1.736,1.736,0,0,1,3.349-.624,1.177,1.177,0,0,0,2.2,0A1.744,1.744,0,0,1,16.45,10.7a1.814,1.814,0,0,1,1.72,1.964,4.66,4.66,0,0,1-1.1,2.787,47.512,47.512,0,0,1-3.347,3.626A41.2,41.2,0,0,1,10.405,15.467ZM3.523,33.049l5.521-5.735,3.432,3.647L6.948,36.489l-.3-2.03a1.177,1.177,0,0,0-.938-.982Z" transform="translate(0 0)" fill="#fff"/>
  </g>
</svg>
