<svg xmlns="http://www.w3.org/2000/svg" xmlns:xlink="http://www.w3.org/1999/xlink" width="80" height="80" viewBox="0 0 80 80">
  <defs>
    <clipPath id="clip-path">
      <rect id="Rectangle_86" data-name="Rectangle 86" width="60" height="58.532" fill="#00aca8"/>
    </clipPath>
  </defs>
  <g id="Groupe_3050" data-name="Groupe 3050" transform="translate(-79 -5996)">
    <circle id="Ellipse_17" data-name="Ellipse 17" cx="40" cy="40" r="40" transform="translate(79 5996)" fill="#fff" opacity="0.15"/>
    <g id="Groupe_89" data-name="Groupe 89" transform="translate(92 6004)">
      <g id="Groupe_88" data-name="Groupe 88" clip-path="url(#clip-path)">
        <path id="Tracé_176" data-name="Tracé 176" d="M365.882,74.171l-1.277.214a4.421,4.421,0,0,0,.11-1.976,4.269,4.269,0,0,0-6.585-2.872,4.272,4.272,0,0,0-1.874,2.725,4.307,4.307,0,1,0,.194,8.6l-.51,1.241a.879.879,0,1,0,1.626.668l.528-1.284a4.315,4.315,0,0,0,1.887,1.2,4.257,4.257,0,0,0,1.278.2,4.306,4.306,0,0,0,3.551-6.75l1.362-.228a.879.879,0,0,0-.29-1.734Zm-2.312,5.49a2.548,2.548,0,0,1-4.761-.4.883.883,0,0,0-1.3-.514,2.548,2.548,0,1,1-.672-4.641.879.879,0,0,0,1.1-.9,2.566,2.566,0,0,1,3.626-2.39l.036.017a2.576,2.576,0,0,1,.694,4.09.887.887,0,0,0,.183,1.415,2.551,2.551,0,0,1,1.092,3.326" transform="translate(-310.642 -60.743)" fill="#00aca8"/>
        <path id="Tracé_177" data-name="Tracé 177" d="M339.39,34.743H323.125a3.121,3.121,0,0,0-3.117,3.117V54.125a3.121,3.121,0,0,0,3.117,3.117H339.39a3.1,3.1,0,0,0,1.359-.313v3.9a1.3,1.3,0,0,1-.494,1.026l-4.778,3.809a.879.879,0,0,0,1.1,1.375l4.778-3.809a3.054,3.054,0,0,0,1.156-2.4V37.86a3.121,3.121,0,0,0-3.117-3.117m0,20.741H323.125a1.361,1.361,0,0,1-1.359-1.359V37.86a1.361,1.361,0,0,1,1.359-1.359H339.39a1.361,1.361,0,0,1,1.359,1.359V54.125A1.361,1.361,0,0,1,339.39,55.484Z" transform="translate(-282.507 -30.672)" fill="#00aca8"/>
        <path id="Tracé_178" data-name="Tracé 178" d="M52.883,52.369h-2.05V30.79h1.421a.879.879,0,1,0,0-1.758h-19.6V6.243H34.5a.879.879,0,0,0,0-1.758H23.575V2.47A2.472,2.472,0,0,0,21.105,0h-5.79a2.472,2.472,0,0,0-2.47,2.47V8.26a2.472,2.472,0,0,0,2.47,2.47h5.79a2.472,2.472,0,0,0,2.47-2.47V6.243H30.9V52.369H25.479V38.23a2.557,2.557,0,0,0-2.554-2.554H13.5a2.557,2.557,0,0,0-2.554,2.554V52.369H5.521V6.243h4.1a.879.879,0,0,0,0-1.758H1.9a.879.879,0,0,0,0,1.758H3.763V52.369H2.147A2.149,2.149,0,0,0,0,54.516v1.869a2.149,2.149,0,0,0,2.147,2.147H52.883a2.149,2.149,0,0,0,2.147-2.147V54.516A2.149,2.149,0,0,0,52.883,52.369ZM21.105,8.972h-5.79A.713.713,0,0,1,14.6,8.26V2.47a.713.713,0,0,1,.712-.712h5.79a.713.713,0,0,1,.712.712V8.26a.713.713,0,0,1-.712.712m27.97,38.54H39.634a.376.376,0,0,1-.375-.375V45.449a.376.376,0,0,1,.375-.375h9.441Zm0-9.053H39.634a.376.376,0,0,1-.375-.375V36.4a.376.376,0,0,1,.375-.375h9.441ZM23.721,38.23V52.369H19.089V37.434h3.836a.8.8,0,0,1,.8.8m-11.022,0a.8.8,0,0,1,.8-.8h3.836V52.369H12.7ZM53.272,56.385a.389.389,0,0,1-.389.389H2.147a.389.389,0,0,1-.389-.389V54.516a.389.389,0,0,1,.389-.389H31.779a.879.879,0,0,0,.879-.879V30.79H49.075v3.473H39.634A2.136,2.136,0,0,0,37.5,36.4v1.687a2.136,2.136,0,0,0,2.133,2.133h9.441v3.1H39.634A2.136,2.136,0,0,0,37.5,45.449v1.687a2.136,2.136,0,0,0,2.133,2.133h9.441v3.1H35.885a.879.879,0,0,0,0,1.758h17a.389.389,0,0,1,.389.389Z" fill="#00aca8"/>
        <path id="Tracé_179" data-name="Tracé 179" d="M139.426,27.5h-.552v-.552a.879.879,0,0,0-1.758,0V27.5h-.551a.879.879,0,0,0,0,1.758h.551v.552a.879.879,0,0,0,1.758,0V29.26h.552a.879.879,0,0,0,0-1.758" transform="translate(-119.785 -23.017)" fill="#00aca8"/>
        <path id="Tracé_180" data-name="Tracé 180" d="M69.077,114.846a.879.879,0,1,0,0,1.758H70.6a.879.879,0,1,0,0-1.758Z" transform="translate(-60.206 -101.387)" fill="#00aca8"/>
        <path id="Tracé_181" data-name="Tracé 181" d="M130.826,114.846H117.865a.879.879,0,1,0,0,1.758h12.961a.879.879,0,1,0,0-1.758" transform="translate(-103.277 -101.387)" fill="#00aca8"/>
        <path id="Tracé_182" data-name="Tracé 182" d="M69.077,153.568H70.6a.879.879,0,0,0,0-1.758H69.077a.879.879,0,0,0,0,1.758" transform="translate(-60.206 -134.02)" fill="#00aca8"/>
        <path id="Tracé_183" data-name="Tracé 183" d="M117.865,153.568h1.526a.879.879,0,0,0,0-1.758h-1.526a.879.879,0,0,0,0,1.758" transform="translate(-103.277 -134.02)" fill="#00aca8"/>
        <path id="Tracé_184" data-name="Tracé 184" d="M166.653,153.568h1.526a.879.879,0,1,0,0-1.758h-1.526a.879.879,0,0,0,0,1.758" transform="translate(-146.347 -134.02)" fill="#00aca8"/>
        <path id="Tracé_185" data-name="Tracé 185" d="M216.968,151.81h-1.526a.879.879,0,0,0,0,1.758h1.526a.879.879,0,0,0,0-1.758" transform="translate(-189.419 -134.02)" fill="#00aca8"/>
        <path id="Tracé_186" data-name="Tracé 186" d="M68.2,189.653a.879.879,0,0,0,.879.879H76.32a.879.879,0,0,0,0-1.758H69.077a.879.879,0,0,0-.879.879" transform="translate(-60.206 -166.652)" fill="#00aca8"/>
        <path id="Tracé_187" data-name="Tracé 187" d="M166.653,190.532h1.526a.879.879,0,0,0,0-1.758h-1.526a.879.879,0,0,0,0,1.758" transform="translate(-146.347 -166.652)" fill="#00aca8"/>
        <path id="Tracé_188" data-name="Tracé 188" d="M216.968,188.774h-1.526a.879.879,0,1,0,0,1.758h1.526a.879.879,0,1,0,0-1.758" transform="translate(-189.419 -166.652)" fill="#00aca8"/>
        <path id="Tracé_189" data-name="Tracé 189" d="M70.6,225.737H69.077a.879.879,0,0,0,0,1.758H70.6a.879.879,0,0,0,0-1.758" transform="translate(-60.206 -199.283)" fill="#00aca8"/>
        <path id="Tracé_190" data-name="Tracé 190" d="M119.392,225.737h-1.526a.879.879,0,0,0,0,1.758h1.526a.879.879,0,1,0,0-1.758" transform="translate(-103.278 -199.283)" fill="#00aca8"/>
        <path id="Tracé_191" data-name="Tracé 191" d="M166.653,227.495h1.526a.879.879,0,1,0,0-1.758h-1.526a.879.879,0,0,0,0,1.758" transform="translate(-146.347 -199.283)" fill="#00aca8"/>
        <path id="Tracé_192" data-name="Tracé 192" d="M216.968,225.737h-1.526a.879.879,0,0,0,0,1.758h1.526a.879.879,0,0,0,0-1.758" transform="translate(-189.419 -199.283)" fill="#00aca8"/>
        <path id="Tracé_193" data-name="Tracé 193" d="M70.6,262.7H69.077a.879.879,0,0,0,0,1.758H70.6a.879.879,0,0,0,0-1.758" transform="translate(-60.206 -231.916)" fill="#00aca8"/>
        <path id="Tracé_194" data-name="Tracé 194" d="M119.392,262.7h-1.526a.879.879,0,0,0,0,1.758h1.526a.879.879,0,1,0,0-1.758" transform="translate(-103.278 -231.916)" fill="#00aca8"/>
        <path id="Tracé_195" data-name="Tracé 195" d="M166.653,264.459H173.9a.879.879,0,0,0,0-1.758h-7.244a.879.879,0,0,0,0,1.758" transform="translate(-146.347 -231.916)" fill="#00aca8"/>
        <path id="Tracé_196" data-name="Tracé 196" d="M366.4,71.613a.879.879,0,1,1-.879.879.879.879,0,0,1,.879-.879" transform="translate(-322.686 -63.221)" fill="#00aca8"/>
        <path id="Tracé_197" data-name="Tracé 197" d="M381.589,127.8a.879.879,0,1,1-.879.879.879.879,0,0,1,.879-.879" transform="translate(-336.096 -112.826)" fill="#00aca8"/>
        <path id="Tracé_198" data-name="Tracé 198" d="M419.659,96.507a.879.879,0,1,1-.879.879.879.879,0,0,1,.879-.879" transform="translate(-369.704 -85.198)" fill="#00aca8"/>
        <path id="Tracé_199" data-name="Tracé 199" d="M426.15,146.243a.879.879,0,1,1-.879.879.879.879,0,0,1,.879-.879" transform="translate(-375.435 -129.105)" fill="#00aca8"/>
      </g>
    </g>
  </g>
</svg>
