<svg xmlns="http://www.w3.org/2000/svg" xmlns:xlink="http://www.w3.org/1999/xlink" width="80" height="83" viewBox="0 0 80 83">
  <defs>
    <clipPath id="clip-path">
      <rect id="Rectangle_87" data-name="Rectangle 87" width="60" height="72.841" fill="#00aca8"/>
    </clipPath>
  </defs>
  <g id="Groupe_3051" data-name="Groupe 3051" transform="translate(-63 -5993)">
    <circle id="Ellipse_17" data-name="Ellipse 17" cx="40" cy="40" r="40" transform="translate(63 5996)" fill="#fff" opacity="0.15"/>
    <g id="Groupe_91" data-name="Groupe 91" transform="translate(74 5993)">
      <g id="Groupe_90" data-name="Groupe 90" clip-path="url(#clip-path)">
        <path id="Tracé_200" data-name="Tracé 200" d="M166.1,45.365a9.951,9.951,0,0,0,2.555,3.989l2.614,2.479a1.066,1.066,0,0,0,1.468,0l2.614-2.479a9.971,9.971,0,0,0,3.1-7.206,6.446,6.446,0,0,0-12.892,0A10.552,10.552,0,0,0,166.1,45.365Zm7.784,2.44L172,49.589l-1.88-1.783a7.766,7.766,0,0,1-1.513-2,28.451,28.451,0,0,1,6.786,0,7.774,7.774,0,0,1-1.513,2M172,37.837a4.317,4.317,0,0,1,4.312,4.312,7.742,7.742,0,0,1-.17,1.606,30.56,30.56,0,0,0-8.284,0,7.743,7.743,0,0,1-.17-1.606A4.317,4.317,0,0,1,172,37.837Z" transform="translate(-142 -30.624)" fill="#00aca8"/>
        <path id="Tracé_201" data-name="Tracé 201" d="M59.879,40.164A30,30,0,0,0,45.572,17.2a1.067,1.067,0,1,0-1.109,1.823,28.155,28.155,0,0,1,8.517,8.062l-8.3,7.645a5.81,5.81,0,0,0-1.869,4.262v6.422A5.794,5.794,0,0,0,45.331,50.2l1.793,1.228a4.151,4.151,0,0,1,1.545,1.96l2.771,7.259a27.807,27.807,0,0,1-7,6.036A6.356,6.356,0,0,0,39.292,63.9H32.133a6.171,6.171,0,0,0-4.393,1.851c-.537.55-2.328,2.387-4.1,4.226a27.877,27.877,0,0,1-21.5-27.135c0-.885.042-1.771.125-2.645H5.094a4.913,4.913,0,0,0,2.894-.937l8.35-6.038a4.955,4.955,0,0,0,2.047-4V23.833a4.428,4.428,0,0,0-1.913-3.644l-1.329-.918a27.806,27.806,0,0,1,4.38-2.252,15.033,15.033,0,0,0,3.634,5.4L24.829,24l-3.33,3.33a1.976,1.976,0,0,0-.438,2.135,2.173,2.173,0,0,0,2.153,1.25,2.062,2.062,0,0,0,1.987,2.3,1.976,1.976,0,0,0,1.4-.58l3.4-3.4,3.343,3.343a1.957,1.957,0,0,0,2.1.453,2.192,2.192,0,0,0,1.306-2.152A2.2,2.2,0,0,0,38.9,29.374a1.957,1.957,0,0,0-.453-2.1L35.168,24l1.674-1.587a15.071,15.071,0,0,0,4.682-10.891,11.525,11.525,0,1,0-23.05,0,14.927,14.927,0,0,0,.406,3.449A30.01,30.01,0,0,0,23.768,72.2a30.265,30.265,0,0,0,20.914-3.186,30.022,30.022,0,0,0,15.2-28.848ZM30,2.134a9.4,9.4,0,0,1,9.391,9.391,12.929,12.929,0,0,1-4.016,9.343L32.9,23.209a1.067,1.067,0,0,0-.02,1.529l3.806,3.806-1.02.067a1.067,1.067,0,0,0-.995.995l-.067,1.021-3.855-3.855a1.067,1.067,0,0,0-1.509,0l-3.9,3.9-.024-1.017a1.067,1.067,0,0,0-1.042-1.042l-1.017-.023,3.848-3.848a1.067,1.067,0,0,0-.02-1.529l-2.469-2.341a12.929,12.929,0,0,1-4.016-9.343A9.4,9.4,0,0,1,30,2.134Zm-13.748,21.7v5.391A2.814,2.814,0,0,1,15.088,31.5L6.738,37.535a2.794,2.794,0,0,1-1.645.532H2.545a28.01,28.01,0,0,1,10.716-17.5l2,1.38A2.294,2.294,0,0,1,16.251,23.833Zm13.1,46.87a27.727,27.727,0,0,1-3.192-.256c1.41-1.456,2.675-2.753,3.112-3.2a4.026,4.026,0,0,1,2.866-1.207h7.159a4.205,4.205,0,0,1,3.267,1.684A27.921,27.921,0,0,1,29.348,70.7ZM57.858,43.414a27.587,27.587,0,0,1-4.9,15.226l-2.3-6.015a6.273,6.273,0,0,0-2.334-2.961l-1.793-1.228a3.661,3.661,0,0,1-1.593-3.021V38.992A3.67,3.67,0,0,1,46.124,36.3l8.014-7.38A27.852,27.852,0,0,1,57.858,43.414Z" fill="#00aca8"/>
        <path id="Tracé_202" data-name="Tracé 202" d="M87.81,284.637a2.195,2.195,0,0,1-4.055-.754l-.5-3a1.067,1.067,0,0,0-2.105.351l.5,3a4.329,4.329,0,0,0,8,1.486l5.4-9.154a7.064,7.064,0,0,0,.433-6.274l-2.923-7.014a5.509,5.509,0,0,0-5.1-3.4c-1.68.051-4.185-.27-5.769.633l-5.819,3.056a3.172,3.172,0,0,0-1.7,2.815v1.977a3.183,3.183,0,0,0,1.626,2.774l2.989,1.674a2.525,2.525,0,0,1,1.263,1.8l.231,1.386a1.067,1.067,0,1,0,2.105-.351l-.231-1.386a4.649,4.649,0,0,0-2.325-3.308l-2.989-1.674a1.047,1.047,0,0,1-.535-.912v-1.977a1.043,1.043,0,0,1,.56-.926L82.68,262.4c.811-.587,3.8-.345,4.776-.389a3.38,3.38,0,0,1,3.129,2.086l2.923,7.014a4.919,4.919,0,0,1-.3,4.37Z" transform="translate(-63.615 -222.894)" fill="#00aca8"/>
      </g>
    </g>
  </g>
</svg>
