<svg xmlns="http://www.w3.org/2000/svg" xmlns:xlink="http://www.w3.org/1999/xlink" width="42" height="42" viewBox="0 0 42 42">
  <defs>
    <clipPath id="clip-path">
      <rect id="Rectangle_290" data-name="Rectangle 290" width="42" height="42" transform="translate(0 0.002)" fill="#fff"/>
    </clipPath>
  </defs>
  <g id="Groupe_3018" data-name="Groupe 3018" transform="translate(0 -0.002)">
    <g id="Groupe_3017" data-name="Groupe 3017" clip-path="url(#clip-path)">
      <path id="Tracé_4338" data-name="Tracé 4338" d="M41.76,130.746l-4.429-4.429a.818.818,0,0,0-.223-.158h0l-6.956-3.369a4.315,4.315,0,0,0,.288-1.489,5.885,5.885,0,0,0-5.813-5.941,5.761,5.761,0,0,0-3.627,1.3,5.761,5.761,0,0,0-3.627-1.3,5.885,5.885,0,0,0-5.813,5.941,4.314,4.314,0,0,0,.288,1.489l-6.956,3.37h0a.819.819,0,0,0-.223.158L.24,130.746a.82.82,0,0,0,.211,1.313l3.978,2.005v5.384a.82.82,0,0,0,.463.738l5.036,2.439a.82.82,0,1,0,.715-1.477L6.07,138.934V134.89l9.926,5a.82.82,0,0,0,.949-.152l3.235-3.235v9.262l-4.2-2.032a.82.82,0,1,0-.715,1.477l5.373,2.6a.821.821,0,0,0,.716,0l15.75-7.629a.821.821,0,0,0,.463-.738v-5.384l3.978-2.005a.82.82,0,0,0,.211-1.313M17.373,117a4.078,4.078,0,0,1,3.024,1.338.82.82,0,0,0,1.206,0A4.077,4.077,0,0,1,24.627,117a4.243,4.243,0,0,1,4.172,4.3c0,1.352-1.425,3.327-4.011,5.561A41.025,41.025,0,0,1,21,129.736a40.964,40.964,0,0,1-3.774-2.863c-2.6-2.24-4.025-4.219-4.025-5.573a4.242,4.242,0,0,1,4.172-4.3M16.2,138.161,2.2,131.1l3.215-3.215L19.6,134.761Zm5.616,7.607v-9.262l3.234,3.234a.82.82,0,0,0,.949.153l9.926-5v4.043Zm3.975-7.607-3.4-3.4,4.286-2.076a.82.82,0,0,0-.715-1.477L21,133.614,7.131,126.9,12.6,124.25a18.878,18.878,0,0,0,3.559,3.865,41.555,41.555,0,0,0,4.407,3.3.82.82,0,0,0,.878,0,41.574,41.574,0,0,0,4.407-3.3A18.876,18.876,0,0,0,29.4,124.25l5.464,2.647-3.139,1.52a.82.82,0,0,0,.715,1.477l4.138-2L39.8,131.1Z" transform="translate(0 -105.896)" fill="#fff"/>
      <path id="Tracé_4339" data-name="Tracé 4339" d="M346.881,291.056a.819.819,0,1,0,.241.58.826.826,0,0,0-.241-.58" transform="translate(-317.14 -266.958)" fill="#fff"/>
      <path id="Tracé_4340" data-name="Tracé 4340" d="M246.814,0a.82.82,0,0,0-.82.82V4.538a.82.82,0,0,0,1.641,0V.82a.82.82,0,0,0-.82-.82" transform="translate(-225.814)" fill="#fff"/>
      <path id="Tracé_4341" data-name="Tracé 4341" d="M314.535,48.482a.821.821,0,0,0-1.16,0L311.556,50.3a.82.82,0,0,0,1.16,1.16l1.818-1.818a.821.821,0,0,0,0-1.16" transform="translate(-285.778 -44.284)" fill="#fff"/>
      <path id="Tracé_4342" data-name="Tracé 4342" d="M161.723,50.3,159.9,48.482a.82.82,0,1,0-1.16,1.16l1.818,1.818a.82.82,0,1,0,1.16-1.16" transform="translate(-145.502 -44.284)" fill="#fff"/>
    </g>
  </g>
</svg>
