<svg xmlns="http://www.w3.org/2000/svg" xmlns:xlink="http://www.w3.org/1999/xlink" width="80" height="80" viewBox="0 0 80 80">
  <defs>
    <clipPath id="clip-path">
      <rect id="Rectangle_88" data-name="Rectangle 88" width="60" height="60.405" fill="#00aca8"/>
    </clipPath>
  </defs>
  <g id="Groupe_3053" data-name="Groupe 3053" transform="translate(-63 -5998)">
    <circle id="Ellipse_17" data-name="Ellipse 17" cx="40" cy="40" r="40" transform="translate(63 5998)" fill="#fff" opacity="0.15"/>
    <g id="Groupe_93" data-name="Groupe 93" transform="translate(78 6004)">
      <g id="Groupe_92" data-name="Groupe 92" clip-path="url(#clip-path)">
        <path id="Tracé_203" data-name="Tracé 203" d="M352.908,113.92a.884.884,0,0,0,1.155-.482l.532-1.295a4.345,4.345,0,0,0,1.9,1.2,4.286,4.286,0,0,0,1.287.2,4.338,4.338,0,0,0,3.577-6.8l1.373-.23a.885.885,0,0,0-.292-1.745l-1.287.215a4.449,4.449,0,0,0,.111-1.992,4.3,4.3,0,0,0-6.633-2.893,4.3,4.3,0,0,0-1.888,2.745,4.338,4.338,0,1,0,.2,8.668l-.514,1.251A.885.885,0,0,0,352.908,113.92Zm-1.358-4.424a2.568,2.568,0,0,1,1.777-4.794.885.885,0,0,0,1.111-.907,2.586,2.586,0,0,1,3.654-2.409l.036.017a2.6,2.6,0,0,1,.7,4.121.893.893,0,0,0,.185,1.424,2.568,2.568,0,1,1-3.7,2.948.892.892,0,0,0-1.311-.518A2.57,2.57,0,0,1,351.551,109.5Z" transform="translate(-307.236 -87.642)" fill="#00aca8"/>
        <path id="Tracé_204" data-name="Tracé 204" d="M293.761,65.276H277.374a3.143,3.143,0,0,0-3.14,3.14V89.784a1.316,1.316,0,0,1-.5,1.034l-4.814,3.837a.885.885,0,0,0,1.1,1.384l4.814-3.837A3.076,3.076,0,0,0,276,89.784V87.627a3.119,3.119,0,0,0,1.37.315h10.372a.885.885,0,0,0,0-1.77H277.374A1.372,1.372,0,0,1,276,84.8V68.416a1.372,1.372,0,0,1,1.37-1.37h16.387a1.372,1.372,0,0,1,1.37,1.37V84.8a1.372,1.372,0,0,1-1.37,1.37h-1.885a.885.885,0,0,0,0,1.77h1.885a3.143,3.143,0,0,0,3.14-3.14V68.416A3.144,3.144,0,0,0,293.761,65.276Z" transform="translate(-236.9 -57.575)" fill="#00aca8"/>
        <path id="Tracé_205" data-name="Tracé 205" d="M45.5,58.635H42.025V56.427a6.8,6.8,0,0,0-6.637-6.786V47.554a2.249,2.249,0,0,0-1.362-2.064V43.681a2.207,2.207,0,0,0-2.2-2.2H22.674a2.207,2.207,0,0,0-2.2,2.2v1.625A14.483,14.483,0,0,1,9.762,21.2a14.788,14.788,0,0,1,8.5-4.728,4.455,4.455,0,1,0,3.881-7.737,5.185,5.185,0,0,1,10.273,1V24.547a.539.539,0,0,1-.539.538H22.584a.539.539,0,0,1-.538-.538V20.792a.885.885,0,0,0-1.77,0v3.755a2.31,2.31,0,0,0,2.308,2.308h.8v5.309a2.311,2.311,0,0,0,2.308,2.308h3.084a2.311,2.311,0,0,0,2.308-2.308V26.855h.8a2.311,2.311,0,0,0,2.309-2.308V9.732A7.015,7.015,0,0,0,27.23,2.778a6.933,6.933,0,0,0-4.982,2.091L15.473.4a2.482,2.482,0,0,0-3.4.669L10.516,3.35A2.472,2.472,0,0,0,11.2,6.808l5.612,3.7a20.592,20.592,0,0,0-4.284,39.188A6.8,6.8,0,0,0,6.6,56.427v2.208H3.123a.885.885,0,0,0,0,1.77H30.918a.885.885,0,0,0,0-1.77H8.371V56.427a5.026,5.026,0,0,1,5.021-5.021H35.235a5.026,5.026,0,0,1,5.02,5.02v2.208h-5.2a.885.885,0,1,0,0,1.77H45.5a.885.885,0,1,0,0-1.77ZM29.311,32.164a.539.539,0,0,1-.538.538H25.689a.539.539,0,0,1-.538-.538V26.855h4.16ZM22.24,43.681a.435.435,0,0,1,.434-.434h9.148a.435.435,0,0,1,.434.434v1.626H22.24Zm1.593-30.605a2.687,2.687,0,1,1-2.687-2.687,2.69,2.69,0,0,1,2.687,2.687M12.171,5.33a.7.7,0,0,1-.194-.982l1.556-2.276a.7.7,0,0,1,.965-.19l6.683,4.4a6.921,6.921,0,0,0-.827,2.4,4.436,4.436,0,0,0-1.861.806ZM33.618,49.16a.477.477,0,0,1-.477.477H20.82a18.859,18.859,0,0,1-4.066-37.315,4.754,4.754,0,0,0,.328,2.581,16.567,16.567,0,0,0-8.642,5.117A16.274,16.274,0,0,0,20.629,47.077H33.141a.477.477,0,0,1,.477.477Z" transform="translate(0 0)" fill="#00aca8"/>
        <path id="Tracé_206" data-name="Tracé 206" d="M362.865,102.174a.885.885,0,1,1-.885.885.885.885,0,0,1,.885-.885" transform="translate(-319.274 -90.12)" fill="#00aca8"/>
        <path id="Tracé_207" data-name="Tracé 207" d="M378.056,158.368a.885.885,0,1,1-.885.885.885.885,0,0,1,.885-.885" transform="translate(-332.673 -139.684)" fill="#00aca8"/>
        <path id="Tracé_208" data-name="Tracé 208" d="M416.127,127.07a.885.885,0,1,1-.885.885.885.885,0,0,1,.885-.885" transform="translate(-366.252 -112.078)" fill="#00aca8"/>
        <path id="Tracé_209" data-name="Tracé 209" d="M422.619,176.809a.885.885,0,1,1-.885.885.885.885,0,0,1,.885-.885" transform="translate(-371.978 -155.949)" fill="#00aca8"/>
      </g>
    </g>
  </g>
</svg>
