<svg xmlns="http://www.w3.org/2000/svg" xmlns:xlink="http://www.w3.org/1999/xlink" width="80" height="80" viewBox="0 0 80 80">
  <defs>
    <clipPath id="clip-path">
      <rect id="Rectangle_85" data-name="Rectangle 85" width="60" height="55.366" fill="#00aca8"/>
    </clipPath>
  </defs>
  <g id="Groupe_3052" data-name="Groupe 3052" transform="translate(-79 -5998)">
    <circle id="Ellipse_17" data-name="Ellipse 17" cx="40" cy="40" r="40" transform="translate(79 5998)" fill="#fff" opacity="0.15"/>
    <g id="Groupe_87" data-name="Groupe 87" transform="translate(91 6008)">
      <g id="Groupe_86" data-name="Groupe 86" clip-path="url(#clip-path)">
        <path id="Tracé_166" data-name="Tracé 166" d="M78.095,420.06a.879.879,0,0,0-.879.879v4.382a.879.879,0,1,0,1.758,0v-4.382a.879.879,0,0,0-.879-.879" transform="translate(-68.167 -370.834)" fill="#00aca8"/>
        <path id="Tracé_167" data-name="Tracé 167" d="M296.5,420.06a.879.879,0,0,0-.879.879v4.382a.879.879,0,0,0,1.758,0v-4.382a.879.879,0,0,0-.879-.879" transform="translate(-260.975 -370.834)" fill="#00aca8"/>
        <path id="Tracé_168" data-name="Tracé 168" d="M127.415,135.61a4.274,4.274,0,0,0-4.083,3.028,4.529,4.529,0,0,0-2.346.014,4.269,4.269,0,1,0,.141,1.8,2.831,2.831,0,0,1,2.059-.007,4.267,4.267,0,1,0,4.229-4.831ZM116.9,142.387a2.51,2.51,0,1,1,2.508-2.538c0,.017,0,.033,0,.05A2.512,2.512,0,0,1,116.9,142.387Zm10.516,0a2.51,2.51,0,1,1,2.51-2.51,2.512,2.512,0,0,1-2.51,2.51" transform="translate(-99.432 -119.718)" fill="#00aca8"/>
        <path id="Tracé_169" data-name="Tracé 169" d="M356.421,143.4a.878.878,0,0,0,1.147-.479l.528-1.284a4.315,4.315,0,0,0,1.887,1.2,4.258,4.258,0,0,0,1.278.2,4.306,4.306,0,0,0,3.551-6.75l1.362-.228a.879.879,0,0,0-.29-1.734l-1.277.214a4.417,4.417,0,0,0,.11-1.976,4.269,4.269,0,0,0-6.585-2.872,4.272,4.272,0,0,0-1.874,2.725,4.307,4.307,0,1,0,.194,8.6l-.51,1.241A.878.878,0,0,0,356.421,143.4ZM355.074,139a2.548,2.548,0,0,1,1.763-4.757.879.879,0,0,0,1.1-.9,2.566,2.566,0,0,1,3.626-2.39l.036.017a2.576,2.576,0,0,1,.694,4.09.887.887,0,0,0,.183,1.415,2.548,2.548,0,1,1-3.668,2.925.887.887,0,0,0-1.3-.515A2.55,2.55,0,0,1,355.074,139Z" transform="translate(-310.643 -113.836)" fill="#00aca8"/>
        <path id="Tracé_170" data-name="Tracé 170" d="M56.883,11.119H40.618a3.1,3.1,0,0,0-1.36.313V7.286A7.294,7.294,0,0,0,31.973,0H14.357a3.63,3.63,0,0,0-3.529,2.8A5.43,5.43,0,0,0,6.191,8.166v4.479a.879.879,0,0,0,1.758,0V8.166A3.668,3.668,0,0,1,11.613,4.5a.879.879,0,0,0,.879-.879,1.867,1.867,0,0,1,1.865-1.865H31.973A5.534,5.534,0,0,1,37.5,7.285v8.606H35.554V12.629a2.339,2.339,0,0,0-2.968-2.253L27.9,11.685a19.24,19.24,0,0,1-10.341,0l-4.691-1.309A2.339,2.339,0,0,0,9.9,12.629v3.262H7.07a2.433,2.433,0,0,0-2.431,2.431v3.626A2.433,2.433,0,0,0,7.07,24.379H9.9a8.658,8.658,0,0,0,7.962,8.556v4.141H6.977A6.985,6.985,0,0,0,0,44.053V54.487a.879.879,0,0,0,1.758,0V44.053a5.225,5.225,0,0,1,5.22-5.22h3.757v6.4a3.964,3.964,0,0,0,.733,2.3l5.282,7.459a.879.879,0,1,0,1.435-1.016L12.9,46.519a2.216,2.216,0,0,1-.41-1.287v-6.4h1.816l7.538,11.544v4.109a.879.879,0,1,0,1.758,0V50.377l7.538-11.544h1.816v6.4a2.215,2.215,0,0,1-.41,1.287l-5.282,7.459A.879.879,0,1,0,28.7,54.994l5.282-7.459a3.965,3.965,0,0,0,.733-2.3v-6.4h3.757a5.225,5.225,0,0,1,5.218,5.22V54.487a.879.879,0,0,0,1.758,0V44.053a6.985,6.985,0,0,0-6.976-6.977H27.59V32.935a8.658,8.658,0,0,0,7.962-8.555H37.5V30.5a3.121,3.121,0,0,0,3.117,3.117h9.938a.879.879,0,1,0,0-1.758H40.618A1.361,1.361,0,0,1,39.259,30.5V14.236a1.361,1.361,0,0,1,1.359-1.359H56.883a1.361,1.361,0,0,1,1.359,1.359V30.5a1.361,1.361,0,0,1-1.359,1.359H54.66a.879.879,0,1,0,0,1.758h2.222a3.1,3.1,0,0,0,1.359-.313v3.9a1.305,1.305,0,0,1-.494,1.026L52.97,42.037a.879.879,0,1,0,1.1,1.375L58.844,39.6A3.054,3.054,0,0,0,60,37.2V14.236A3.121,3.121,0,0,0,56.883,11.119ZM6.4,21.948V18.322a.674.674,0,0,1,.673-.673H9.9v4.971H7.07a.673.673,0,0,1-.673-.673m20.545,20.1a1.429,1.429,0,0,1-1.934.448l-.89-.531,2.97-3.131h1.952Zm-8.436,0-2.1-3.214H18.36l2.97,3.131-.89.531A1.43,1.43,0,0,1,18.507,42.048Zm1.559,2.388a3.191,3.191,0,0,0,1.274-.431l1.385-.825,1.385.825a3.193,3.193,0,0,0,1.274.431l-2.659,4.072ZM25.833,37.6,22.725,40.88,19.617,37.6v-4.64h6.216Zm1.072-6.4H18.544a6.9,6.9,0,0,1-6.891-6.891V12.629a.571.571,0,0,1,.23-.463.578.578,0,0,1,.347-.12.6.6,0,0,1,.16.022l4.691,1.309a21,21,0,0,0,11.286,0l4.691-1.309a.581.581,0,0,1,.738.56V24.315A6.9,6.9,0,0,1,26.9,31.206Zm8.649-13.557H37.5v4.972H35.554Z" fill="#00aca8"/>
        <path id="Tracé_171" data-name="Tracé 171" d="M187.3,200.057a.879.879,0,0,0-.879.879v1.122a.879.879,0,0,0,1.758,0v-1.122a.879.879,0,0,0-.879-.879" transform="translate(-164.571 -176.613)" fill="#00aca8"/>
        <path id="Tracé_172" data-name="Tracé 172" d="M366.4,131.756a.879.879,0,1,1-.879.879.879.879,0,0,1,.879-.879" transform="translate(-322.686 -116.316)" fill="#00aca8"/>
        <path id="Tracé_173" data-name="Tracé 173" d="M381.589,187.946a.879.879,0,1,1-.879.879.879.879,0,0,1,.879-.879" transform="translate(-336.096 -165.921)" fill="#00aca8"/>
        <path id="Tracé_174" data-name="Tracé 174" d="M419.659,156.649a.879.879,0,1,1-.879.879.879.879,0,0,1,.879-.879" transform="translate(-369.704 -138.292)" fill="#00aca8"/>
        <path id="Tracé_175" data-name="Tracé 175" d="M426.149,206.386a.879.879,0,1,1-.879.879.879.879,0,0,1,.879-.879" transform="translate(-375.434 -182.2)" fill="#00aca8"/>
      </g>
    </g>
  </g>
</svg>
