<svg id="Groupe_2997" data-name="Groupe 2997" xmlns="http://www.w3.org/2000/svg" xmlns:xlink="http://www.w3.org/1999/xlink" width="30" height="26.029" viewBox="0 0 30 26.029">
  <defs>
    <clipPath id="clip-path">
      <rect id="Rectangle_272" data-name="Rectangle 272" width="30" height="26.029" fill="#00aca8"/>
    </clipPath>
  </defs>
  <g id="Groupe_2996" data-name="Groupe 2996" clip-path="url(#clip-path)">
    <path id="Tracé_4305" data-name="Tracé 4305" d="M0,1A1,1,0,0,0,1,2,20.589,20.589,0,0,1,21.565,22.611L16.8,17.851a1,1,0,0,0-1.417,1.417l6.468,6.468h0a1,1,0,0,0,1.416,0l6.468-6.468a1,1,0,0,0-1.412-1.417l-4.761,4.761A22.591,22.591,0,0,0,1,0,1,1,0,0,0,0,1" fill="#00aca8"/>
  </g>
</svg>
