<svg id="Logo" xmlns="http://www.w3.org/2000/svg" xmlns:xlink="http://www.w3.org/1999/xlink" width="436.574" height="276.938" viewBox="0 0 436.574 276.938">
  <defs>
    <clipPath id="clip-path">
      <rect id="Rectangle_3" data-name="Rectangle 3" width="436.574" height="276.938" fill="none"/>
    </clipPath>
  </defs>
  <path id="Tracé_1" data-name="Tracé 1" d="M365.705,63.644H355.614L344.123,97.1l-13.03-33.451H320.666l18.9,47.689H349.1Z" transform="translate(-72.053 -14.301)" fill="#fff"/>
  <path id="Tracé_2" data-name="Tracé 2" d="M427.877,218.255h11.987l18.1,42.482H445.987Z" transform="translate(-96.143 -49.041)" fill="#fff"/>
  <g id="Groupe_2" data-name="Groupe 2">
    <g id="Groupe_1" data-name="Groupe 1" clip-path="url(#clip-path)">
      <path id="Tracé_3" data-name="Tracé 3" d="M78.438,106.182a17.723,17.723,0,0,1-13.465,5.432,17.566,17.566,0,0,1-12.853-5.226c-4.822-4.827-4.686-10.781-4.686-19.022S47.3,73.172,52.121,68.351a17.3,17.3,0,0,1,12.853-5.223c11.054,0,16.679,7.235,17.952,15.264H73.55c-1.074-4.49-3.819-6.961-8.576-6.961a7.741,7.741,0,0,0-5.958,2.545c-1.813,2.009-2.279,4.217-2.279,13.39s.467,11.455,2.279,13.473a7.732,7.732,0,0,0,5.958,2.465,8.752,8.752,0,0,0,6.634-2.675,9.183,9.183,0,0,0,2.141-6.36v-1.8H64.974V84.686H82.99v6.968c0,6.9-1.2,11.06-4.551,14.528" transform="translate(-10.658 -14.185)" fill="#fff"/>
      <path id="Tracé_4" data-name="Tracé 4" d="M128.52,111.732c-9.775,0-17.534-6.631-17.534-16.752V63.645h9.3V94.656c0,5.493,3.215,8.767,8.238,8.767s8.312-3.274,8.312-8.767V63.645h9.24V94.98c0,10.121-7.765,16.752-17.552,16.752" transform="translate(-24.938 -14.301)" fill="#fff"/>
      <path id="Tracé_5" data-name="Tracé 5" d="M187.971,111.617c-7.237,0-12.73-1.545-17.414-6.3l6.028-6.026c3.014,3.018,7.1,4.017,11.518,4.017,5.493,0,8.438-2.075,8.438-5.891a5.306,5.306,0,0,0-1.475-4.02c-.935-.869-2.008-1.338-4.217-1.669l-5.764-.8c-4.082-.608-7.093-1.881-9.241-3.956-2.271-2.279-3.416-5.355-3.416-9.373,0-8.506,6.3-14.465,16.611-14.465,6.56,0,11.32,1.6,15.405,5.564l-5.9,5.818c-3.017-2.88-6.633-3.279-9.774-3.279-4.958,0-7.37,2.745-7.37,6.03a4.591,4.591,0,0,0,1.408,3.407,8.161,8.161,0,0,0,4.42,1.877l5.625.8c4.349.61,7.1,1.816,9.11,3.69,2.545,2.4,3.683,5.891,3.683,10.1,0,9.246-7.7,14.473-17.679,14.473" transform="translate(-38.324 -14.185)" fill="#fff"/>
      <path id="Tracé_6" data-name="Tracé 6" d="M247.485,71.947v39.386h-9.314V71.947H225.709v-8.3h34.23v8.3Z" transform="translate(-50.716 -14.301)" fill="#fff"/>
      <path id="Tracé_7" data-name="Tracé 7" d="M303,111.333l-2.812-8.446h-16.94l-2.884,8.447h-9.711l17.35-47.689h7.3l17.407,47.689ZM291.893,77.71l-6.034,17.344h11.862Z" transform="translate(-60.816 -14.301)" fill="#fff"/>
      <path id="Tracé_8" data-name="Tracé 8" d="M387.941,111.333V63.645h31.411v8.3H397.4V83.135h18.68v8.306H397.411v11.588h21.942v8.305Z" transform="translate(-87.169 -14.301)" fill="#fff"/>
      <path id="Tracé_9" data-name="Tracé 9" d="M76.368,194.891l-10.7-21.878h-7.71v21.878H47.244V140.034h21.5c11.167,0,17.8,7.628,17.8,16.789A14.77,14.77,0,0,1,76.519,171.23l12.247,23.661Zm-8.317-45.3h-10.1v14.483h10.1c4.7,0,7.778-3.012,7.778-7.248s-3.083-7.236-7.778-7.236" transform="translate(-10.616 -31.465)" fill="#fff"/>
      <path id="Tracé_10" data-name="Tracé 10" d="M156.245,189.208a21.313,21.313,0,0,1-29.665,0c-5.547-5.55-5.394-12.4-5.394-21.872,0-9.489-.154-16.34,5.394-21.885a21.3,21.3,0,0,1,29.665,0c5.546,5.545,5.467,12.4,5.467,21.885,0,9.468.079,16.322-5.467,21.872m-7.937-37.289a8.909,8.909,0,0,0-6.862-2.936,9.061,9.061,0,0,0-6.924,2.936c-2.079,2.3-2.619,4.853-2.619,15.417,0,10.547.54,13.089,2.619,15.4a9.057,9.057,0,0,0,6.924,2.922,8.9,8.9,0,0,0,6.862-2.922c2.076-2.312,2.7-4.853,2.7-15.4,0-10.564-.623-13.113-2.7-15.417" transform="translate(-27.23 -31.331)" fill="#fff"/>
      <path id="Tracé_11" data-name="Tracé 11" d="M215.858,195.35c-11.243,0-20.181-7.627-20.181-19.26V140.036h10.716v35.67c0,6.316,3.7,10.084,9.465,10.084s9.563-3.767,9.563-10.084v-35.67h10.626V176.09c0,11.633-8.931,19.26-20.189,19.26" transform="translate(-43.968 -31.466)" fill="#fff"/>
      <path id="Tracé_12" data-name="Tracé 12" d="M286.81,195.215c-8.324,0-14.642-1.776-20.031-7.244l6.928-6.937c3.472,3.472,8.168,4.622,13.259,4.622,6.312,0,9.7-2.386,9.7-6.775a6.128,6.128,0,0,0-1.685-4.62c-1.08-1-2.319-1.537-4.862-1.924l-6.627-.932c-4.7-.685-8.159-2.15-10.627-4.538-2.61-2.616-3.925-6.157-3.925-10.789,0-9.787,7.237-16.641,19.105-16.641,7.548,0,13.024,1.848,17.718,6.4l-6.782,6.7c-3.466-3.318-7.628-3.775-11.243-3.775-5.7,0-8.476,3.155-8.476,6.937a5.267,5.267,0,0,0,1.619,3.923,9.353,9.353,0,0,0,5.078,2.158l6.474.926c5.02.692,8.168,2.077,10.485,4.244,2.919,2.763,4.23,6.767,4.23,11.625,0,10.635-8.86,16.643-20.332,16.643" transform="translate(-59.944 -31.331)" fill="#fff"/>
      <path id="Tracé_13" data-name="Tracé 13" d="M355.212,195.215c-8.324,0-14.643-1.776-20.035-7.244l6.94-6.937c3.458,3.471,8.166,4.621,13.246,4.621,6.324,0,9.708-2.386,9.708-6.775a6.137,6.137,0,0,0-1.692-4.62c-1.081-1-2.32-1.537-4.863-1.924l-6.62-.932c-4.7-.685-8.159-2.15-10.634-4.537-2.614-2.617-3.928-6.158-3.928-10.79,0-9.787,7.239-16.641,19.107-16.641,7.541,0,13.029,1.848,17.717,6.4l-6.776,6.7c-3.471-3.318-7.633-3.775-11.25-3.775-5.7,0-8.477,3.155-8.477,6.937a5.27,5.27,0,0,0,1.62,3.922,9.354,9.354,0,0,0,5.084,2.158l6.477.926c5.006.692,8.159,2.077,10.471,4.244,2.931,2.763,4.238,6.767,4.238,11.625,0,10.635-8.862,16.643-20.335,16.643" transform="translate(-75.313 -31.331)" fill="#fff"/>
      <path id="Tracé_14" data-name="Tracé 14" d="M53.712,259.67a6.275,6.275,0,0,1-4.6-1.868c-1.724-1.72-1.675-3.851-1.675-6.8s-.05-5.073,1.675-6.8a6.278,6.278,0,0,1,4.6-1.86,6,6,0,0,1,6.271,5.381H56.611a2.824,2.824,0,0,0-2.873-2.416,2.781,2.781,0,0,0-2.135.883c-.639.717-.834,1.533-.834,4.81s.2,4.093.834,4.815a2.756,2.756,0,0,0,2.135.885,2.825,2.825,0,0,0,2.873-2.424h3.373a6.019,6.019,0,0,1-6.271,5.392" transform="translate(-10.66 -54.454)" fill="#fff"/>
      <path id="Tracé_15" data-name="Tracé 15" d="M76.169,259.561l-1-3.007H69.108l-1.027,3.007H64.609l6.2-17.037h2.607l6.226,17.037ZM72.2,247.551l-2.154,6.2h4.236Z" transform="translate(-14.517 -54.494)" fill="#fff"/>
      <path id="Tracé_16" data-name="Tracé 16" d="M96.793,259.56,90.038,249.1V259.56H86.71V242.523h2.97l6.751,10.432V242.523h3.325V259.56Z" transform="translate(-19.484 -54.494)" fill="#fff"/>
      <path id="Tracé_17" data-name="Tracé 17" d="M114.2,259.67a6.293,6.293,0,0,1-4.6-1.868c-1.727-1.72-1.675-3.851-1.675-6.8s-.052-5.073,1.675-6.8a6.3,6.3,0,0,1,4.6-1.86,5.994,5.994,0,0,1,6.271,5.381H117.1a2.828,2.828,0,0,0-2.873-2.416,2.788,2.788,0,0,0-2.135.883c-.639.717-.835,1.533-.835,4.81s.2,4.093.835,4.815a2.763,2.763,0,0,0,2.135.885,2.83,2.83,0,0,0,2.873-2.424h3.372a6.018,6.018,0,0,1-6.271,5.392" transform="translate(-24.251 -54.454)" fill="#fff"/>
      <path id="Tracé_18" data-name="Tracé 18" d="M127.813,259.56V242.523h11.224v2.971h-7.9v4h6.723v2.962H131.14V256.6h7.9v2.959Z" transform="translate(-28.719 -54.494)" fill="#fff"/>
      <path id="Tracé_19" data-name="Tracé 19" d="M155.54,259.56l-3.323-6.793h-2.4v6.793h-3.327V242.523h6.678a5.155,5.155,0,0,1,5.533,5.216,4.6,4.6,0,0,1-3.116,4.476l3.807,7.345Zm-2.587-14.066h-3.134v4.5h3.134a2.255,2.255,0,1,0,0-4.5" transform="translate(-32.916 -54.494)" fill="#fff"/>
      <path id="Tracé_20" data-name="Tracé 20" d="M179.38,259.67a6.309,6.309,0,0,1-4.6-1.868c-1.718-1.72-1.668-3.851-1.668-6.8s-.05-5.073,1.668-6.8a6.312,6.312,0,0,1,4.6-1.86,6,6,0,0,1,6.271,5.381h-3.373a2.824,2.824,0,0,0-2.873-2.416,2.791,2.791,0,0,0-2.136.883c-.644.717-.84,1.533-.84,4.81s.2,4.093.84,4.815a2.766,2.766,0,0,0,2.136.885,2.825,2.825,0,0,0,2.873-2.424h3.373a6.018,6.018,0,0,1-6.271,5.392" transform="translate(-38.897 -54.454)" fill="#fff"/>
      <path id="Tracé_21" data-name="Tracé 21" d="M201.836,259.561l-1-3.007h-6.059l-1.028,3.007h-3.471l6.2-17.037h2.614l6.219,17.037Zm-3.972-12.009-2.153,6.2h4.23Z" transform="translate(-42.754 -54.494)" fill="#fff"/>
      <path id="Tracé_22" data-name="Tracé 22" d="M224.5,259.56v-9.932l-3.26,6.467h-2.251l-3.276-6.467v9.932h-3.324V242.523h3.279l4.453,9.216,4.426-9.216h3.28V259.56Z" transform="translate(-47.722 -54.494)" fill="#fff"/>
      <path id="Tracé_23" data-name="Tracé 23" d="M244.028,253.151h-3.279v6.409h-3.325V242.523h6.6a5.323,5.323,0,1,1,0,10.628m-.17-7.657h-3.109v4.665h3.109a2.336,2.336,0,1,0,0-4.665" transform="translate(-53.348 -54.494)" fill="#fff"/>
      <path id="Tracé_24" data-name="Tracé 24" d="M262.74,259.711c-3.5,0-6.272-2.367-6.272-5.984v-11.2H259.8v11.093a2.961,2.961,0,1,0,5.912,0V242.523h3.3v11.2c0,3.617-2.776,5.984-6.271,5.984" transform="translate(-57.628 -54.494)" fill="#fff"/>
      <path id="Tracé_25" data-name="Tracé 25" d="M281.69,259.67c-2.593,0-4.551-.553-6.231-2.25l2.156-2.151a5.6,5.6,0,0,0,4.121,1.43c1.964,0,3.012-.747,3.012-2.1a1.888,1.888,0,0,0-.521-1.437,2.527,2.527,0,0,0-1.514-.6l-2.056-.285a5.85,5.85,0,0,1-3.306-1.417,4.517,4.517,0,0,1-1.216-3.352c0-3.038,2.25-5.167,5.933-5.167a7.291,7.291,0,0,1,5.512,1.985l-2.11,2.084a4.748,4.748,0,0,0-3.5-1.175c-1.777,0-2.629.974-2.629,2.153a1.643,1.643,0,0,0,.5,1.224,2.932,2.932,0,0,0,1.576.667l2.009.281a5.613,5.613,0,0,1,3.261,1.325,4.776,4.776,0,0,1,1.315,3.61c0,3.305-2.758,5.173-6.316,5.173" transform="translate(-61.895 -54.454)" fill="#fff"/>
      <path id="Tracé_26" data-name="Tracé 26" d="M58.475,288.57a6.248,6.248,0,0,1-8.907.194c-1.607-1.6-1.607-3.276-1.607-6.9s0-5.286,1.607-6.892A6.026,6.026,0,0,1,53.93,273.2a5.806,5.806,0,0,1,5.956,5.1h-1.82a4.179,4.179,0,0,0-7.081-2.248c-1.08,1.1-1.2,2.248-1.2,5.808s.119,4.745,1.2,5.844A4.075,4.075,0,0,0,53.93,288.9a4.142,4.142,0,0,0,3.226-1.455,4.452,4.452,0,0,0,.962-3.1V283.07H53.93v-1.606h6v2.709a5.889,5.889,0,0,1-1.456,4.4" transform="translate(-10.777 -61.388)" fill="#fff"/>
      <path id="Tracé_27" data-name="Tracé 27" d="M78.658,290.439l-3.88-7.569H70.692v7.569H68.867V273.4h6.54c2.965,0,5.048,1.789,5.048,4.739a4.423,4.423,0,0,1-3.711,4.57l4.044,7.732Zm-3.42-15.422H70.692v6.252h4.546c1.983,0,3.4-1.03,3.4-3.114s-1.414-3.138-3.4-3.138" transform="translate(-15.474 -61.431)" fill="#fff"/>
      <path id="Tracé_28" data-name="Tracé 28" d="M98.43,290.439l-1.372-3.852H89.617l-1.364,3.852H86.315L92.586,273.4h1.53l6.248,17.042ZM93.378,276l-3.214,9h6.37Z" transform="translate(-19.395 -61.431)" fill="#fff"/>
      <path id="Tracé_29" data-name="Tracé 29" d="M118.856,290.439l-9.051-13.67v13.67h-1.821V273.4h1.724l9.056,13.621V273.4h1.819v17.041Z" transform="translate(-24.264 -61.432)" fill="#fff"/>
      <path id="Tracé_30" data-name="Tracé 30" d="M140.742,288.856a6,6,0,0,1-4.314,1.583h-5.84V273.4h5.84a5.988,5.988,0,0,1,4.314,1.575c1.768,1.771,1.675,4.383,1.675,6.743,0,2.379.092,5.37-1.675,7.141m-1.269-12.6a4.463,4.463,0,0,0-3.352-1.242h-3.71v13.791h3.71a4.464,4.464,0,0,0,3.352-1.243c1.166-1.218,1.125-3.76,1.125-5.85s.041-4.232-1.125-5.456" transform="translate(-29.343 -61.432)" fill="#fff"/>
      <path id="Tracé_31" data-name="Tracé 31" d="M165.4,283.422h-4.525v7.016H159.06V273.4H165.4c3.114,0,5.265,1.934,5.265,5s-2.151,5.026-5.265,5.026m-.164-8.405h-4.36V281.8h4.36c2.129,0,3.611-1.154,3.611-3.4s-1.482-3.38-3.611-3.38" transform="translate(-35.74 -61.431)" fill="#fff"/>
      <path id="Tracé_32" data-name="Tracé 32" d="M186.268,290.439l-1.368-3.852h-7.437l-1.371,3.852h-1.93l6.27-17.042h1.524l6.255,17.042ZM181.217,276l-3.207,9h6.37Z" transform="translate(-39.134 -61.431)" fill="#fff"/>
      <path id="Tracé_33" data-name="Tracé 33" d="M205.621,290.439l-3.879-7.569h-4.093v7.569H195.83V273.4h6.534c2.971,0,5.053,1.789,5.053,4.739a4.428,4.428,0,0,1-3.709,4.57l4.049,7.732ZM202.2,275.017h-4.551v6.252H202.2c1.985,0,3.4-1.03,3.4-3.114s-1.413-3.138-3.4-3.138" transform="translate(-44.002 -61.431)" fill="#fff"/>
      <rect id="Rectangle_2" data-name="Rectangle 2" width="1.827" height="17.041" transform="translate(167.527 211.966)" fill="#fff"/>
      <path id="Tracé_34" data-name="Tracé 34" d="M228.752,290.535a7.447,7.447,0,0,1-5.843-2.247l1.245-1.247a5.841,5.841,0,0,0,4.643,1.865c2.49,0,4.024-1.17,4.024-3.155a2.728,2.728,0,0,0-.809-2.127,3.725,3.725,0,0,0-2.232-.823l-1.989-.307a6.193,6.193,0,0,1-3.131-1.293,4.023,4.023,0,0,1-1.295-3.189c0-2.894,2.086-4.808,5.46-4.808a6.861,6.861,0,0,1,5.076,1.865l-1.177,1.173a5.377,5.377,0,0,0-3.972-1.457c-2.272,0-3.591,1.275-3.591,3.161a2.462,2.462,0,0,0,.766,1.968,4.985,4.985,0,0,0,2.3.937l1.858.279a5.529,5.529,0,0,1,3.114,1.2,4.27,4.27,0,0,1,1.437,3.372c0,2.993-2.346,4.833-5.888,4.833" transform="translate(-50.087 -61.388)" fill="#fff"/>
      <path id="Tracé_35" data-name="Tracé 35" d="M405.995,225.748,394,225.737l-22.968,53.894H383Z" transform="translate(-83.37 -50.722)" fill="#fff"/>
      <path id="Tracé_36" data-name="Tracé 36" d="M427.827,139.131l-10.873,25.456-10.8-25.411H394.156l16.833,39.464-6.974,16.381h11.961l23.849-55.89Z" transform="translate(-88.566 -31.262)" fill="#fff"/>
      <path id="Tracé_37" data-name="Tracé 37" d="M443.5,107.675h12.013l25.773-60.424H469.331Z" transform="translate(-99.654 -10.617)" fill="#fff"/>
      <path id="Tracé_38" data-name="Tracé 38" d="M501.772,171.883H452.558L448.132,182.3h49.262Z" transform="translate(-100.694 -38.621)" fill="#fff"/>
    </g>
  </g>
</svg>
